<svg width="358" height="73" viewBox="0 0 358 73" fill="none" xmlns="http://www.w3.org/2000/svg">
<mask id="path-1-outside-1_52_2847" maskUnits="userSpaceOnUse" x="0" y="0" width="355" height="73" fill="black">
<rect fill="white" width="355" height="73"/>
<path d="M21.2673 20.9157L19.932 21.7206C19.4717 22.0494 19.1548 22.4066 18.9811 22.7924C18.801 23.1573 18.7873 23.5894 18.94 24.0889L28.5584 55.5524C28.8129 56.3848 29.2116 56.9184 29.7544 57.1533C30.2909 57.3674 30.9938 57.3555 31.8632 57.1178L35.6203 56.0904C36.7588 55.7791 37.684 55.357 38.3959 54.8241C39.1285 54.2856 39.7123 53.5171 40.1473 52.5188C40.5966 51.4939 40.945 50.1021 41.1924 48.3433L41.8317 43.5009C41.9514 42.7917 42.1968 42.2736 42.5679 41.9467C42.9533 41.5933 43.4716 41.4177 44.1228 41.42C44.774 41.4224 45.2874 41.5976 45.663 41.9459C46.0387 42.2942 46.2415 42.8475 46.2715 43.606L46.671 55.3686C46.6802 56.4259 46.5374 57.2429 46.2426 57.8196C45.9749 58.4114 45.4271 58.8205 44.5991 59.0469C44.1023 59.1828 43.5737 59.2146 43.0133 59.1423C42.4799 59.0852 41.8844 59.0451 41.2269 59.022C40.59 58.9932 39.8472 59.0948 38.9985 59.3269L16.2077 65.559C15.4211 65.7741 14.7938 65.7765 14.3258 65.5663C13.8514 65.3352 13.5283 64.9387 13.3566 64.3769C13.0639 63.4197 13.35 62.6312 14.2148 62.0114L15.5501 61.2065C16.031 60.8721 16.3512 60.5252 16.5105 60.166C16.6842 59.7802 16.6947 59.3377 16.542 58.8382L6.92361 27.3747C6.77093 26.8753 6.51552 26.5167 6.15735 26.299C5.81353 26.0548 5.34389 25.9126 4.74844 25.8725L3.16503 25.8658C2.08399 25.778 1.39715 25.2556 1.10452 24.2983C0.926404 23.7157 0.975935 23.2173 1.25312 22.8033C1.5303 22.3893 2.06219 22.0747 2.84879 21.8596L19.3054 17.3596C20.092 17.1445 20.7089 17.1449 21.1563 17.3609C21.6243 17.5711 21.9474 17.9676 22.1255 18.5502C22.4181 19.5074 22.132 20.296 21.2673 20.9157Z"/>
<path d="M90.5428 31.9829C90.7002 33.3463 90.4483 34.4345 89.7869 35.2475C89.1443 36.0366 88.1299 36.5028 86.7437 36.646L67.2623 38.6588L66.9211 35.7046L77.7654 34.5842C78.8957 34.4674 79.3996 33.8788 79.2771 32.8183C78.9571 30.0481 78.305 28.0459 77.3208 26.8117C76.3579 25.5752 75.1834 25.0286 73.7972 25.1718C72.7736 25.2776 71.8965 25.7186 71.1661 26.4949C70.4332 27.2495 69.9109 28.3328 69.5993 29.7447C69.2851 31.135 69.2405 32.8041 69.4655 34.7519C69.9354 38.8206 71.2012 41.7449 73.2627 43.5249C75.343 45.281 77.94 45.9982 81.0536 45.6765C82.6957 45.5068 84.1253 45.0854 85.3424 44.4121C86.5808 43.7367 87.6004 42.7553 88.4013 41.468C88.8556 40.9174 89.2114 40.5412 89.4686 40.3394C89.7259 40.1376 89.9931 40.0224 90.2703 39.9937C90.6542 39.9541 90.9539 40.1202 91.1695 40.4922C91.3827 40.8424 91.5192 41.2773 91.5792 41.7967C91.754 43.684 91.3167 45.5031 90.2673 47.2541C89.2154 48.9834 87.658 50.4474 85.5953 51.646C83.5513 52.8208 81.1005 53.5558 78.2428 53.8511C75.0652 54.1794 72.1539 53.8232 69.5087 52.7824C66.8636 51.7417 64.6809 50.1276 62.9608 47.9401C61.262 45.7503 60.2326 43.0972 59.8726 39.9807C59.4776 36.5613 59.8032 33.4944 60.8492 30.7802C61.8953 28.066 63.6047 25.8636 65.9776 24.173C68.3479 22.4607 71.3138 21.4206 74.8752 21.0527C77.9462 20.7354 80.5985 20.9979 82.8323 21.8402C85.0874 22.6804 86.8675 23.9857 88.1726 25.7562C89.4752 27.505 90.2653 29.5806 90.5428 31.9829Z"/>
<path d="M103.23 23.5761L102.003 23.1649C101.487 22.9963 101.109 22.7826 100.87 22.5237C100.652 22.2429 100.541 21.9063 100.536 21.5141C100.529 20.9912 100.706 20.586 101.067 20.2987C101.428 20.0114 101.898 19.8645 102.477 19.8581L104.341 19.8373C104.792 19.8323 105.187 19.7298 105.527 19.5299C105.889 19.3079 106.302 18.922 106.767 18.372L111.043 13.1269C111.613 12.4668 112.154 11.9813 112.665 11.6705C113.175 11.3597 113.677 11.2016 114.17 11.1961C114.706 11.1901 115.126 11.3707 115.431 11.7378C115.735 12.083 115.892 12.5825 115.9 13.2362L116.237 40.331C116.257 41.878 116.55 43.0624 117.118 43.8842C117.707 44.6839 118.515 45.0781 119.544 45.0666C120.337 45.0578 120.946 44.8657 121.37 44.4906C121.815 44.1151 122.164 43.6972 122.416 43.2367C122.688 42.7543 122.951 42.3264 123.203 41.9531C123.477 41.5796 123.85 41.3902 124.322 41.385C124.686 41.3809 124.977 41.5084 125.195 41.7675C125.434 42.0263 125.557 42.4717 125.565 43.1036C125.584 44.6506 125.141 46.0829 124.236 47.4005C123.33 48.6964 122.068 49.7456 120.449 50.5481C118.851 51.3287 117.012 51.7305 114.933 51.7537C111.803 51.7886 109.361 51.0422 107.605 49.5145C105.85 47.965 104.952 45.6215 104.913 42.4839L104.703 25.6191C104.695 25.009 104.572 24.5636 104.333 24.283C104.115 24.0021 103.747 23.7665 103.23 23.5761ZM111.882 23.7085L111.833 19.7538L123.054 19.6287C123.633 19.6223 124.095 19.7479 124.441 20.0055C124.787 20.2414 124.963 20.599 124.969 21.0784C124.978 21.7756 124.642 22.3677 123.962 22.8547C123.304 23.3415 122.203 23.5935 120.66 23.6107L111.882 23.7085Z"/>
<path d="M140.013 12.4521C137.935 12.3632 136.384 11.8171 135.359 10.8136C134.356 9.78924 133.894 8.46088 133.972 6.82849C134.059 5.02198 134.782 3.58078 136.143 2.50489C137.503 1.429 139.094 0.929998 140.914 1.00789C143.056 1.09952 144.778 1.89291 146.08 3.38806C147.382 4.88321 147.965 7.04552 147.83 9.87499C147.71 12.378 147.153 14.6005 146.159 16.5427C145.165 18.4631 143.856 20.0428 142.23 21.2818C140.605 22.499 138.763 23.3144 136.705 23.728C135.859 23.9099 135.205 23.9037 134.742 23.7094C134.301 23.5161 134.027 23.1772 133.922 22.6929C133.814 22.2521 133.909 21.8417 134.206 21.4619C134.524 21.0829 135.098 20.7476 135.928 20.456C137.345 19.9932 138.532 19.4006 139.489 18.6782C140.469 17.935 141.204 17.1486 141.695 16.319C142.208 15.4685 142.482 14.6733 142.517 13.9333C142.537 13.5198 142.435 13.1882 142.211 12.9387C142.009 12.6684 141.597 12.5199 140.976 12.4934L140.013 12.4521Z"/>
<path d="M170.323 24.7664C168.956 24.6433 167.877 24.8742 167.086 25.4592C166.318 26.0244 165.886 26.7839 165.79 27.7377C165.731 28.323 165.794 28.8755 165.978 29.3953C166.165 29.8933 166.611 30.3819 167.317 30.8611C168.025 31.3186 169.122 31.7674 170.608 32.2074C174.189 33.2299 176.886 34.3696 178.699 35.6266C180.535 36.8637 181.743 38.2412 182.322 39.759C182.926 41.257 183.137 42.9057 182.956 44.7049C182.626 47.9782 181.234 50.4668 178.778 52.1706C176.325 53.8527 172.91 54.4967 168.533 54.1025C167.016 53.966 165.802 53.7253 164.889 53.3806C163.973 53.0575 163.228 52.7498 162.654 52.4575C162.104 52.1455 161.605 51.9693 161.156 51.9289C160.665 51.8847 160.247 51.9782 159.9 52.2095C159.577 52.421 159.253 52.6434 158.928 52.8766C158.603 53.1098 158.205 53.2053 157.736 53.163C157.266 53.1207 156.928 52.948 156.721 52.6451C156.513 52.3638 156.347 51.8676 156.225 51.1567L154.918 44.8705C154.739 43.87 154.731 43.0928 154.895 42.5388C155.082 41.965 155.474 41.5957 156.073 41.4308C156.692 41.2679 157.216 41.315 157.642 41.5722C158.071 41.8076 158.446 42.257 158.767 42.9203C159.571 44.5676 160.457 45.9271 161.427 46.9987C162.417 48.0723 163.476 48.9004 164.602 49.4831C165.752 50.046 166.946 50.3832 168.185 50.4947C169.829 50.6428 171.089 50.4282 171.966 49.8509C172.843 49.2737 173.336 48.4431 173.445 47.3592C173.513 46.6872 173.401 46.0866 173.109 45.5572C172.842 45.0081 172.237 44.4834 171.297 43.983C170.379 43.463 168.99 42.9222 167.129 42.3609C164.263 41.5122 162.015 40.5113 160.386 39.3584C158.759 38.1838 157.634 36.8357 157.012 35.3141C156.411 33.7944 156.208 32.059 156.405 30.108C156.61 28.0703 157.323 26.3408 158.543 24.9196C159.763 23.4983 161.344 22.4594 163.285 21.8029C165.227 21.1248 167.416 20.8953 169.85 21.1146C171.409 21.2549 172.634 21.4965 173.526 21.8393C174.439 22.1841 175.17 22.5233 175.718 22.857C176.29 23.171 176.853 23.353 177.408 23.403C177.942 23.4511 178.393 23.3604 178.761 23.1311C179.152 22.8819 179.521 22.6417 179.868 22.4105C180.214 22.1792 180.622 22.0847 181.092 22.127C181.498 22.1635 181.813 22.3451 182.039 22.6716C182.288 22.9784 182.442 23.4844 182.5 24.1897L183.189 30.1905C183.264 31.1597 183.211 31.8987 183.03 32.4074C182.873 32.8964 182.506 33.2243 181.929 33.391C181.329 33.5776 180.817 33.5206 180.395 33.2201C179.994 32.9215 179.594 32.4042 179.194 31.6682C178.031 29.3104 176.661 27.6121 175.085 26.5734C173.533 25.5148 171.945 24.9125 170.323 24.7664Z"/>
<path d="M213.974 30.7323L212.832 30.1381C212.351 29.8924 212.014 29.6236 211.822 29.3318C211.655 29.0216 211.603 28.673 211.666 28.2859C211.749 27.7699 211.994 27.3982 212.4 27.1708C212.806 26.9435 213.295 26.8713 213.868 26.9542L215.715 27.2212C216.16 27.2857 216.569 27.2457 216.939 27.1013C217.335 26.9385 217.81 26.622 218.363 26.152L223.49 21.6453C224.167 21.0832 224.785 20.6884 225.343 20.461C225.901 20.2337 226.424 20.1553 226.912 20.2259C227.443 20.3026 227.827 20.5453 228.065 20.9538C228.307 21.3408 228.375 21.8568 228.271 22.5019L223.947 49.24C223.7 50.7667 223.787 51.9784 224.206 52.8753C224.651 53.7538 225.382 54.2667 226.401 54.4141C227.186 54.5276 227.82 54.4324 228.304 54.1282C228.809 53.8271 229.225 53.4692 229.553 53.0545C229.905 52.6214 230.238 52.2405 230.552 51.9118C230.887 51.5861 231.288 51.4571 231.755 51.5246C232.115 51.5768 232.381 51.7473 232.552 52.036C232.743 52.3278 232.789 52.7855 232.688 53.409C232.441 54.9357 231.757 56.2781 230.636 57.4362C229.518 58.5729 228.09 59.4116 226.352 59.9524C224.639 60.4747 222.753 60.587 220.694 60.2892C217.596 59.841 215.311 58.7293 213.839 56.954C212.37 55.1572 211.886 52.7106 212.387 49.6143L215.078 32.9715C215.175 32.3695 215.13 31.9118 214.942 31.5985C214.775 31.2882 214.452 30.9995 213.974 30.7323ZM222.501 32.1968L223.132 28.2941L234.242 29.9011C234.815 29.984 235.25 30.179 235.548 30.4861C235.849 30.7718 235.962 31.1511 235.885 31.6242C235.774 32.3122 235.34 32.8437 234.585 33.2185C233.85 33.5964 232.719 33.6748 231.191 33.4538L222.501 32.1968Z"/>
<path d="M256.969 60.5476L257.088 59.8388L256.304 59.6548L259.666 39.6465C259.861 38.4866 259.707 37.5275 259.204 36.7692C258.722 36.0141 257.951 35.5568 256.891 35.3974C256.001 35.2635 255.245 35.3592 254.625 35.6844C254.005 36.0096 253.645 36.4729 253.544 37.0744L253.008 40.2641C252.748 41.8106 252.026 42.9354 250.843 43.6384C249.684 44.323 248.15 44.5219 246.242 44.235C244.609 43.9895 243.441 43.4395 242.736 42.5848C242.053 41.7334 241.82 40.6633 242.037 39.3745C242.271 37.9783 243.096 36.6929 244.511 35.5182C245.93 34.322 247.892 33.4498 250.397 32.9015C252.902 32.3533 255.915 32.3437 259.435 32.8729C263.634 33.5041 266.612 34.7997 268.37 36.7597C270.152 38.7014 270.809 41.0684 270.34 43.8608L267.637 59.9383C267.554 60.4323 267.594 60.8456 267.755 61.1782C267.942 61.4925 268.257 61.6831 268.703 61.7501C269.106 61.8107 269.431 61.7495 269.679 61.5666C269.949 61.3868 270.195 61.2147 270.418 61.05C270.571 60.9188 270.73 60.8106 270.897 60.7256C271.063 60.6405 271.242 60.6123 271.433 60.641C271.751 60.6888 271.964 60.842 272.073 61.1006C272.182 61.3592 272.205 61.6711 272.144 62.0362C272.003 62.8739 271.558 63.71 270.809 64.5443C270.064 65.3572 269.054 65.9982 267.779 66.4672C266.508 66.9148 265.003 67.0079 263.265 66.7464C261.144 66.4277 259.493 65.706 258.313 64.5815C257.157 63.4388 256.709 62.0941 256.969 60.5476ZM238.116 55.1366C238.589 52.3228 240.217 50.2663 243.001 48.967C245.788 47.6463 249.43 47.3239 253.925 47.9997C255.24 48.1974 256.388 48.4801 257.37 48.848C258.376 49.1975 259.199 49.6074 259.837 50.0778L258.535 52.3926C257.992 52.0026 257.447 51.6894 256.899 51.453C256.373 51.2197 255.771 51.0521 255.092 50.9501C253.693 50.7397 252.522 50.982 251.579 51.6771C250.661 52.3539 250.079 53.4226 249.833 54.8832C249.584 56.3653 249.743 57.5563 250.309 58.4562C250.9 59.3379 251.779 59.8664 252.945 60.0417C253.814 60.1724 254.686 60.0943 255.561 59.8073C256.435 59.5204 257.172 59.0806 257.772 58.4881L258.13 60.8212C256.777 62.2696 255.041 63.2859 252.921 63.8701C250.826 64.4359 248.675 64.5531 246.47 64.2216C243.586 63.788 241.373 62.7285 239.83 61.043C238.312 59.3393 237.74 57.3705 238.116 55.1366Z"/>
<path d="M297.411 23.5828L292.073 63.551C291.969 64.3284 291.969 64.8987 292.072 65.262C292.199 65.6062 292.433 65.8755 292.775 66.0699L293.658 66.5044C294.103 66.7331 294.403 66.9993 294.557 67.3029C294.732 67.609 294.794 67.9564 294.742 68.3451C294.673 68.8633 294.448 69.2532 294.067 69.5148C293.689 69.7549 293.138 69.8316 292.414 69.7452L278.842 68.1238C278.097 68.0348 277.573 67.8296 277.269 67.5082C276.99 67.1678 276.886 66.7384 276.955 66.2202C277.007 65.8315 277.147 65.5083 277.376 65.2505C277.627 64.9952 277.987 64.8079 278.457 64.6885L279.49 64.4829C279.851 64.3725 280.128 64.1642 280.32 63.8581C280.536 63.533 280.695 62.9925 280.796 62.2368L285.286 28.6168C285.37 27.9906 285.344 27.5378 285.208 27.2583C285.075 26.9573 284.823 26.7407 284.451 26.6085L283.291 26.3054C282.883 26.125 282.599 25.9046 282.439 25.6442C282.3 25.3863 282.255 25.0738 282.304 24.7068C282.365 24.2533 282.53 23.911 282.798 23.6799C283.088 23.4513 283.581 23.2469 284.275 23.0666L291.091 21.347C292.144 21.0779 292.967 20.9021 293.562 20.8196C294.179 20.7397 294.7 20.7251 295.125 20.776C295.998 20.8803 296.616 21.1954 296.978 21.7213C297.365 22.2281 297.509 22.8486 297.411 23.5828Z"/>
<path d="M299.816 71.1564C299.088 71.1389 298.566 70.9847 298.252 70.6938C297.939 70.3811 297.79 69.9633 297.804 69.4405C297.814 69.0484 297.92 68.7131 298.12 68.4346C298.342 68.1566 298.68 67.9359 299.135 67.7724L300.14 67.4696C300.487 67.3254 300.74 67.0917 300.899 66.7686C301.08 66.4242 301.181 65.8708 301.201 65.1084L302.113 31.1927C302.13 30.561 302.056 30.1123 301.892 29.8468C301.728 29.5595 301.454 29.3677 301.071 29.2713L299.886 29.0793C299.461 28.9383 299.155 28.7457 298.969 28.5014C298.804 28.2577 298.726 27.9507 298.736 27.5804C298.748 27.1229 298.876 26.7664 299.119 26.5106C299.383 26.2554 299.85 26.0051 300.522 25.7597L307.115 23.4007C308.089 23.0536 308.868 22.8107 309.45 22.6722C310.055 22.5123 310.636 22.4391 311.193 22.4525C312.008 22.4721 312.623 22.7266 313.038 23.2162C313.455 23.6839 313.653 24.2881 313.633 25.0287L312.549 65.3486C312.528 66.1327 312.588 66.7009 312.728 67.053C312.891 67.3839 313.152 67.6299 313.513 67.7912L314.403 68.1722C315.079 68.5373 315.408 69.0683 315.39 69.7653C315.358 70.9416 314.624 71.5125 313.188 71.4779L299.816 71.1564ZM309.425 57.1323L322.337 47.0457C323.081 46.4751 323.429 45.9059 323.38 45.338C323.332 44.7483 322.915 44.2914 322.13 43.9674L321.142 43.6167C320.739 43.4544 320.455 43.2514 320.29 43.0077C320.147 42.7645 320.08 42.4468 320.091 42.0547C320.105 41.532 320.298 41.1334 320.67 40.8589C321.042 40.5627 321.539 40.4221 322.161 40.4371L334.054 40.723C334.697 40.7385 335.197 40.8922 335.554 41.1841C335.91 41.4761 336.082 41.8725 336.069 42.3735C336.056 42.8528 335.895 43.2521 335.586 43.5717C335.277 43.8912 334.637 44.1701 333.666 44.4083C332.544 44.6646 331.515 45.0432 330.58 45.5438C329.645 46.0226 328.476 46.801 327.075 47.879L310.657 60.3334L309.425 57.1323ZM321.97 48.737L333.047 66.2338C333.459 66.854 333.822 67.3205 334.135 67.6332C334.47 67.9246 334.913 68.2077 335.463 68.4825C335.927 68.777 336.283 69.0907 336.532 69.4236C336.78 69.7566 336.899 70.1191 336.888 70.5112C336.876 70.9686 336.684 71.3345 336.312 71.6089C335.94 71.8833 335.454 72.0133 334.854 71.9989L320.742 71.6596C320.185 71.6462 319.739 71.4938 319.404 71.2024C319.091 70.8897 318.941 70.4828 318.954 69.9818C318.963 69.6333 319.046 69.3519 319.202 69.1377C319.358 68.9235 319.621 68.7227 319.99 68.5355L320.803 68.228C321.279 68.0651 321.532 67.8096 321.563 67.4616C321.616 67.0924 321.385 66.4983 320.871 65.6795L314.33 55.3539L321.97 48.737Z"/>
<path d="M340.912 21.6526C343.252 21.3557 345.053 21.6871 346.315 22.6467C347.577 23.6063 348.338 25.0028 348.598 26.836C348.678 27.3968 348.713 28.029 348.705 28.7327C348.714 29.4121 348.679 30.1521 348.597 30.9529L347.518 51.2783C347.415 52.2354 347.214 52.9526 346.913 53.4299C346.634 53.9044 346.176 54.1821 345.537 54.2631C344.899 54.3441 344.369 54.1918 343.946 53.8063C343.545 53.4182 343.161 52.7752 342.796 51.8775L336.058 32.5438C335.757 31.7916 335.505 31.088 335.304 30.4329C335.121 29.7535 334.99 29.1335 334.91 28.5727C334.65 26.7394 334.995 25.2027 335.945 23.9624C336.917 22.7194 338.572 21.9494 340.912 21.6526ZM347.869 70.9283C346.635 71.0848 345.474 70.9138 344.386 70.4151C343.294 69.895 342.377 69.155 341.635 68.1953C340.91 67.2114 340.461 66.1047 340.287 64.8753C340.106 63.6028 340.231 62.4233 340.662 61.3368C341.111 60.2259 341.79 59.2944 342.701 58.5421C343.612 57.7898 344.685 57.3353 345.918 57.1788C347.173 57.0196 348.345 57.1893 349.434 57.6879C350.543 58.1838 351.459 58.913 352.18 59.8754C352.919 60.8135 353.379 61.9188 353.56 63.1913C353.734 64.4207 353.598 65.6015 353.153 66.7339C352.725 67.8421 352.047 68.7844 351.118 69.561C350.207 70.3133 349.124 70.7691 347.869 70.9283Z"/>
</mask>
<path d="M21.2673 20.9157L19.932 21.7206C19.4717 22.0494 19.1548 22.4066 18.9811 22.7924C18.801 23.1573 18.7873 23.5894 18.94 24.0889L28.5584 55.5524C28.8129 56.3848 29.2116 56.9184 29.7544 57.1533C30.2909 57.3674 30.9938 57.3555 31.8632 57.1178L35.6203 56.0904C36.7588 55.7791 37.684 55.357 38.3959 54.8241C39.1285 54.2856 39.7123 53.5171 40.1473 52.5188C40.5966 51.4939 40.945 50.1021 41.1924 48.3433L41.8317 43.5009C41.9514 42.7917 42.1968 42.2736 42.5679 41.9467C42.9533 41.5933 43.4716 41.4177 44.1228 41.42C44.774 41.4224 45.2874 41.5976 45.663 41.9459C46.0387 42.2942 46.2415 42.8475 46.2715 43.606L46.671 55.3686C46.6802 56.4259 46.5374 57.2429 46.2426 57.8196C45.9749 58.4114 45.4271 58.8205 44.5991 59.0469C44.1023 59.1828 43.5737 59.2146 43.0133 59.1423C42.4799 59.0852 41.8844 59.0451 41.2269 59.022C40.59 58.9932 39.8472 59.0948 38.9985 59.3269L16.2077 65.559C15.4211 65.7741 14.7938 65.7765 14.3258 65.5663C13.8514 65.3352 13.5283 64.9387 13.3566 64.3769C13.0639 63.4197 13.35 62.6312 14.2148 62.0114L15.5501 61.2065C16.031 60.8721 16.3512 60.5252 16.5105 60.166C16.6842 59.7802 16.6947 59.3377 16.542 58.8382L6.92361 27.3747C6.77093 26.8753 6.51552 26.5167 6.15735 26.299C5.81353 26.0548 5.34389 25.9126 4.74844 25.8725L3.16503 25.8658C2.08399 25.778 1.39715 25.2556 1.10452 24.2983C0.926404 23.7157 0.975935 23.2173 1.25312 22.8033C1.5303 22.3893 2.06219 22.0747 2.84879 21.8596L19.3054 17.3596C20.092 17.1445 20.7089 17.1449 21.1563 17.3609C21.6243 17.5711 21.9474 17.9676 22.1255 18.5502C22.4181 19.5074 22.132 20.296 21.2673 20.9157Z" stroke="#194280" stroke-width="2" mask="url(#path-1-outside-1_52_2847)"/>
<path d="M90.5428 31.9829C90.7002 33.3463 90.4483 34.4345 89.7869 35.2475C89.1443 36.0366 88.1299 36.5028 86.7437 36.646L67.2623 38.6588L66.9211 35.7046L77.7654 34.5842C78.8957 34.4674 79.3996 33.8788 79.2771 32.8183C78.9571 30.0481 78.305 28.0459 77.3208 26.8117C76.3579 25.5752 75.1834 25.0286 73.7972 25.1718C72.7736 25.2776 71.8965 25.7186 71.1661 26.4949C70.4332 27.2495 69.9109 28.3328 69.5993 29.7447C69.2851 31.135 69.2405 32.8041 69.4655 34.7519C69.9354 38.8206 71.2012 41.7449 73.2627 43.5249C75.343 45.281 77.94 45.9982 81.0536 45.6765C82.6957 45.5068 84.1253 45.0854 85.3424 44.4121C86.5808 43.7367 87.6004 42.7553 88.4013 41.468C88.8556 40.9174 89.2114 40.5412 89.4686 40.3394C89.7259 40.1376 89.9931 40.0224 90.2703 39.9937C90.6542 39.9541 90.9539 40.1202 91.1695 40.4922C91.3827 40.8424 91.5192 41.2773 91.5792 41.7967C91.754 43.684 91.3167 45.5031 90.2673 47.2541C89.2154 48.9834 87.658 50.4474 85.5953 51.646C83.5513 52.8208 81.1005 53.5558 78.2428 53.8511C75.0652 54.1794 72.1539 53.8232 69.5087 52.7824C66.8636 51.7417 64.6809 50.1276 62.9608 47.9401C61.262 45.7503 60.2326 43.0972 59.8726 39.9807C59.4776 36.5613 59.8032 33.4944 60.8492 30.7802C61.8953 28.066 63.6047 25.8636 65.9776 24.173C68.3479 22.4607 71.3138 21.4206 74.8752 21.0527C77.9462 20.7354 80.5985 20.9979 82.8323 21.8402C85.0874 22.6804 86.8675 23.9857 88.1726 25.7562C89.4752 27.505 90.2653 29.5806 90.5428 31.9829Z" stroke="#194280" stroke-width="2" mask="url(#path-1-outside-1_52_2847)"/>
<path d="M103.23 23.5761L102.003 23.1649C101.487 22.9963 101.109 22.7826 100.87 22.5237C100.652 22.2429 100.541 21.9063 100.536 21.5141C100.529 20.9912 100.706 20.586 101.067 20.2987C101.428 20.0114 101.898 19.8645 102.477 19.8581L104.341 19.8373C104.792 19.8323 105.187 19.7298 105.527 19.5299C105.889 19.3079 106.302 18.922 106.767 18.372L111.043 13.1269C111.613 12.4668 112.154 11.9813 112.665 11.6705C113.175 11.3597 113.677 11.2016 114.17 11.1961C114.706 11.1901 115.126 11.3707 115.431 11.7378C115.735 12.083 115.892 12.5825 115.9 13.2362L116.237 40.331C116.257 41.878 116.55 43.0624 117.118 43.8842C117.707 44.6839 118.515 45.0781 119.544 45.0666C120.337 45.0578 120.946 44.8657 121.37 44.4906C121.815 44.1151 122.164 43.6972 122.416 43.2367C122.688 42.7543 122.951 42.3264 123.203 41.9531C123.477 41.5796 123.85 41.3902 124.322 41.385C124.686 41.3809 124.977 41.5084 125.195 41.7675C125.434 42.0263 125.557 42.4717 125.565 43.1036C125.584 44.6506 125.141 46.0829 124.236 47.4005C123.33 48.6964 122.068 49.7456 120.449 50.5481C118.851 51.3287 117.012 51.7305 114.933 51.7537C111.803 51.7886 109.361 51.0422 107.605 49.5145C105.85 47.965 104.952 45.6215 104.913 42.4839L104.703 25.6191C104.695 25.009 104.572 24.5636 104.333 24.283C104.115 24.0021 103.747 23.7665 103.23 23.5761ZM111.882 23.7085L111.833 19.7538L123.054 19.6287C123.633 19.6223 124.095 19.7479 124.441 20.0055C124.787 20.2414 124.963 20.599 124.969 21.0784C124.978 21.7756 124.642 22.3677 123.962 22.8547C123.304 23.3415 122.203 23.5935 120.66 23.6107L111.882 23.7085Z" stroke="#194280" stroke-width="2" mask="url(#path-1-outside-1_52_2847)"/>
<path d="M140.013 12.4521C137.935 12.3632 136.384 11.8171 135.359 10.8136C134.356 9.78924 133.894 8.46088 133.972 6.82849C134.059 5.02198 134.782 3.58078 136.143 2.50489C137.503 1.429 139.094 0.929998 140.914 1.00789C143.056 1.09952 144.778 1.89291 146.08 3.38806C147.382 4.88321 147.965 7.04552 147.83 9.87499C147.71 12.378 147.153 14.6005 146.159 16.5427C145.165 18.4631 143.856 20.0428 142.23 21.2818C140.605 22.499 138.763 23.3144 136.705 23.728C135.859 23.9099 135.205 23.9037 134.742 23.7094C134.301 23.5161 134.027 23.1772 133.922 22.6929C133.814 22.2521 133.909 21.8417 134.206 21.4619C134.524 21.0829 135.098 20.7476 135.928 20.456C137.345 19.9932 138.532 19.4006 139.489 18.6782C140.469 17.935 141.204 17.1486 141.695 16.319C142.208 15.4685 142.482 14.6733 142.517 13.9333C142.537 13.5198 142.435 13.1882 142.211 12.9387C142.009 12.6684 141.597 12.5199 140.976 12.4934L140.013 12.4521Z" stroke="#194280" stroke-width="2" mask="url(#path-1-outside-1_52_2847)"/>
<path d="M170.323 24.7664C168.956 24.6433 167.877 24.8742 167.086 25.4592C166.318 26.0244 165.886 26.7839 165.79 27.7377C165.731 28.323 165.794 28.8755 165.978 29.3953C166.165 29.8933 166.611 30.3819 167.317 30.8611C168.025 31.3186 169.122 31.7674 170.608 32.2074C174.189 33.2299 176.886 34.3696 178.699 35.6266C180.535 36.8637 181.743 38.2412 182.322 39.759C182.926 41.257 183.137 42.9057 182.956 44.7049C182.626 47.9782 181.234 50.4668 178.778 52.1706C176.325 53.8527 172.91 54.4967 168.533 54.1025C167.016 53.966 165.802 53.7253 164.889 53.3806C163.973 53.0575 163.228 52.7498 162.654 52.4575C162.104 52.1455 161.605 51.9693 161.156 51.9289C160.665 51.8847 160.247 51.9782 159.9 52.2095C159.577 52.421 159.253 52.6434 158.928 52.8766C158.603 53.1098 158.205 53.2053 157.736 53.163C157.266 53.1207 156.928 52.948 156.721 52.6451C156.513 52.3638 156.347 51.8676 156.225 51.1567L154.918 44.8705C154.739 43.87 154.731 43.0928 154.895 42.5388C155.082 41.965 155.474 41.5957 156.073 41.4308C156.692 41.2679 157.216 41.315 157.642 41.5722C158.071 41.8076 158.446 42.257 158.767 42.9203C159.571 44.5676 160.457 45.9271 161.427 46.9987C162.417 48.0723 163.476 48.9004 164.602 49.4831C165.752 50.046 166.946 50.3832 168.185 50.4947C169.829 50.6428 171.089 50.4282 171.966 49.8509C172.843 49.2737 173.336 48.4431 173.445 47.3592C173.513 46.6872 173.401 46.0866 173.109 45.5572C172.842 45.0081 172.237 44.4834 171.297 43.983C170.379 43.463 168.99 42.9222 167.129 42.3609C164.263 41.5122 162.015 40.5113 160.386 39.3584C158.759 38.1838 157.634 36.8357 157.012 35.3141C156.411 33.7944 156.208 32.059 156.405 30.108C156.61 28.0703 157.323 26.3408 158.543 24.9196C159.763 23.4983 161.344 22.4594 163.285 21.8029C165.227 21.1248 167.416 20.8953 169.85 21.1146C171.409 21.2549 172.634 21.4965 173.526 21.8393C174.439 22.1841 175.17 22.5233 175.718 22.857C176.29 23.171 176.853 23.353 177.408 23.403C177.942 23.4511 178.393 23.3604 178.761 23.1311C179.152 22.8819 179.521 22.6417 179.868 22.4105C180.214 22.1792 180.622 22.0847 181.092 22.127C181.498 22.1635 181.813 22.3451 182.039 22.6716C182.288 22.9784 182.442 23.4844 182.5 24.1897L183.189 30.1905C183.264 31.1597 183.211 31.8987 183.03 32.4074C182.873 32.8964 182.506 33.2243 181.929 33.391C181.329 33.5776 180.817 33.5206 180.395 33.2201C179.994 32.9215 179.594 32.4042 179.194 31.6682C178.031 29.3104 176.661 27.6121 175.085 26.5734C173.533 25.5148 171.945 24.9125 170.323 24.7664Z" stroke="#194280" stroke-width="2" mask="url(#path-1-outside-1_52_2847)"/>
<path d="M213.974 30.7323L212.832 30.1381C212.351 29.8924 212.014 29.6236 211.822 29.3318C211.655 29.0216 211.603 28.673 211.666 28.2859C211.749 27.7699 211.994 27.3982 212.4 27.1708C212.806 26.9435 213.295 26.8713 213.868 26.9542L215.715 27.2212C216.16 27.2857 216.569 27.2457 216.939 27.1013C217.335 26.9385 217.81 26.622 218.363 26.152L223.49 21.6453C224.167 21.0832 224.785 20.6884 225.343 20.461C225.901 20.2337 226.424 20.1553 226.912 20.2259C227.443 20.3026 227.827 20.5453 228.065 20.9538C228.307 21.3408 228.375 21.8568 228.271 22.5019L223.947 49.24C223.7 50.7667 223.787 51.9784 224.206 52.8753C224.651 53.7538 225.382 54.2667 226.401 54.4141C227.186 54.5276 227.82 54.4324 228.304 54.1282C228.809 53.8271 229.225 53.4692 229.553 53.0545C229.905 52.6214 230.238 52.2405 230.552 51.9118C230.887 51.5861 231.288 51.4571 231.755 51.5246C232.115 51.5768 232.381 51.7473 232.552 52.036C232.743 52.3278 232.789 52.7855 232.688 53.409C232.441 54.9357 231.757 56.2781 230.636 57.4362C229.518 58.5729 228.09 59.4116 226.352 59.9524C224.639 60.4747 222.753 60.587 220.694 60.2892C217.596 59.841 215.311 58.7293 213.839 56.954C212.37 55.1572 211.886 52.7106 212.387 49.6143L215.078 32.9715C215.175 32.3695 215.13 31.9118 214.942 31.5985C214.775 31.2882 214.452 30.9995 213.974 30.7323ZM222.501 32.1968L223.132 28.2941L234.242 29.9011C234.815 29.984 235.25 30.179 235.548 30.4861C235.849 30.7718 235.962 31.1511 235.885 31.6242C235.774 32.3122 235.34 32.8437 234.585 33.2185C233.85 33.5964 232.719 33.6748 231.191 33.4538L222.501 32.1968Z" stroke="#194280" stroke-width="2" mask="url(#path-1-outside-1_52_2847)"/>
<path d="M256.969 60.5476L257.088 59.8388L256.304 59.6548L259.666 39.6465C259.861 38.4866 259.707 37.5275 259.204 36.7692C258.722 36.0141 257.951 35.5568 256.891 35.3974C256.001 35.2635 255.245 35.3592 254.625 35.6844C254.005 36.0096 253.645 36.4729 253.544 37.0744L253.008 40.2641C252.748 41.8106 252.026 42.9354 250.843 43.6384C249.684 44.323 248.15 44.5219 246.242 44.235C244.609 43.9895 243.441 43.4395 242.736 42.5848C242.053 41.7334 241.82 40.6633 242.037 39.3745C242.271 37.9783 243.096 36.6929 244.511 35.5182C245.93 34.322 247.892 33.4498 250.397 32.9015C252.902 32.3533 255.915 32.3437 259.435 32.8729C263.634 33.5041 266.612 34.7997 268.37 36.7597C270.152 38.7014 270.809 41.0684 270.34 43.8608L267.637 59.9383C267.554 60.4323 267.594 60.8456 267.755 61.1782C267.942 61.4925 268.257 61.6831 268.703 61.7501C269.106 61.8107 269.431 61.7495 269.679 61.5666C269.949 61.3868 270.195 61.2147 270.418 61.05C270.571 60.9188 270.73 60.8106 270.897 60.7256C271.063 60.6405 271.242 60.6123 271.433 60.641C271.751 60.6888 271.964 60.842 272.073 61.1006C272.182 61.3592 272.205 61.6711 272.144 62.0362C272.003 62.8739 271.558 63.71 270.809 64.5443C270.064 65.3572 269.054 65.9982 267.779 66.4672C266.508 66.9148 265.003 67.0079 263.265 66.7464C261.144 66.4277 259.493 65.706 258.313 64.5815C257.157 63.4388 256.709 62.0941 256.969 60.5476ZM238.116 55.1366C238.589 52.3228 240.217 50.2663 243.001 48.967C245.788 47.6463 249.43 47.3239 253.925 47.9997C255.24 48.1974 256.388 48.4801 257.37 48.848C258.376 49.1975 259.199 49.6074 259.837 50.0778L258.535 52.3926C257.992 52.0026 257.447 51.6894 256.899 51.453C256.373 51.2197 255.771 51.0521 255.092 50.9501C253.693 50.7397 252.522 50.982 251.579 51.6771C250.661 52.3539 250.079 53.4226 249.833 54.8832C249.584 56.3653 249.743 57.5563 250.309 58.4562C250.9 59.3379 251.779 59.8664 252.945 60.0417C253.814 60.1724 254.686 60.0943 255.561 59.8073C256.435 59.5204 257.172 59.0806 257.772 58.4881L258.13 60.8212C256.777 62.2696 255.041 63.2859 252.921 63.8701C250.826 64.4359 248.675 64.5531 246.47 64.2216C243.586 63.788 241.373 62.7285 239.83 61.043C238.312 59.3393 237.74 57.3705 238.116 55.1366Z" stroke="#194280" stroke-width="2" mask="url(#path-1-outside-1_52_2847)"/>
<path d="M297.411 23.5828L292.073 63.551C291.969 64.3284 291.969 64.8987 292.072 65.262C292.199 65.6062 292.433 65.8755 292.775 66.0699L293.658 66.5044C294.103 66.7331 294.403 66.9993 294.557 67.3029C294.732 67.609 294.794 67.9564 294.742 68.3451C294.673 68.8633 294.448 69.2532 294.067 69.5148C293.689 69.7549 293.138 69.8316 292.414 69.7452L278.842 68.1238C278.097 68.0348 277.573 67.8296 277.269 67.5082C276.99 67.1678 276.886 66.7384 276.955 66.2202C277.007 65.8315 277.147 65.5083 277.376 65.2505C277.627 64.9952 277.987 64.8079 278.457 64.6885L279.49 64.4829C279.851 64.3725 280.128 64.1642 280.32 63.8581C280.536 63.533 280.695 62.9925 280.796 62.2368L285.286 28.6168C285.37 27.9906 285.344 27.5378 285.208 27.2583C285.075 26.9573 284.823 26.7407 284.451 26.6085L283.291 26.3054C282.883 26.125 282.599 25.9046 282.439 25.6442C282.3 25.3863 282.255 25.0738 282.304 24.7068C282.365 24.2533 282.53 23.911 282.798 23.6799C283.088 23.4513 283.581 23.2469 284.275 23.0666L291.091 21.347C292.144 21.0779 292.967 20.9021 293.562 20.8196C294.179 20.7397 294.7 20.7251 295.125 20.776C295.998 20.8803 296.616 21.1954 296.978 21.7213C297.365 22.2281 297.509 22.8486 297.411 23.5828Z" stroke="#194280" stroke-width="2" mask="url(#path-1-outside-1_52_2847)"/>
<path d="M299.816 71.1564C299.088 71.1389 298.566 70.9847 298.252 70.6938C297.939 70.3811 297.79 69.9633 297.804 69.4405C297.814 69.0484 297.92 68.7131 298.12 68.4346C298.342 68.1566 298.68 67.9359 299.135 67.7724L300.14 67.4696C300.487 67.3254 300.74 67.0917 300.899 66.7686C301.08 66.4242 301.181 65.8708 301.201 65.1084L302.113 31.1927C302.13 30.561 302.056 30.1123 301.892 29.8468C301.728 29.5595 301.454 29.3677 301.071 29.2713L299.886 29.0793C299.461 28.9383 299.155 28.7457 298.969 28.5014C298.804 28.2577 298.726 27.9507 298.736 27.5804C298.748 27.1229 298.876 26.7664 299.119 26.5106C299.383 26.2554 299.85 26.0051 300.522 25.7597L307.115 23.4007C308.089 23.0536 308.868 22.8107 309.45 22.6722C310.055 22.5123 310.636 22.4391 311.193 22.4525C312.008 22.4721 312.623 22.7266 313.038 23.2162C313.455 23.6839 313.653 24.2881 313.633 25.0287L312.549 65.3486C312.528 66.1327 312.588 66.7009 312.728 67.053C312.891 67.3839 313.152 67.6299 313.513 67.7912L314.403 68.1722C315.079 68.5373 315.408 69.0683 315.39 69.7653C315.358 70.9416 314.624 71.5125 313.188 71.4779L299.816 71.1564ZM309.425 57.1323L322.337 47.0457C323.081 46.4751 323.429 45.9059 323.38 45.338C323.332 44.7483 322.915 44.2914 322.13 43.9674L321.142 43.6167C320.739 43.4544 320.455 43.2514 320.29 43.0077C320.147 42.7645 320.08 42.4468 320.091 42.0547C320.105 41.532 320.298 41.1334 320.67 40.8589C321.042 40.5627 321.539 40.4221 322.161 40.4371L334.054 40.723C334.697 40.7385 335.197 40.8922 335.554 41.1841C335.91 41.4761 336.082 41.8725 336.069 42.3735C336.056 42.8528 335.895 43.2521 335.586 43.5717C335.277 43.8912 334.637 44.1701 333.666 44.4083C332.544 44.6646 331.515 45.0432 330.58 45.5438C329.645 46.0226 328.476 46.801 327.075 47.879L310.657 60.3334L309.425 57.1323ZM321.97 48.737L333.047 66.2338C333.459 66.854 333.822 67.3205 334.135 67.6332C334.47 67.9246 334.913 68.2077 335.463 68.4825C335.927 68.777 336.283 69.0907 336.532 69.4236C336.78 69.7566 336.899 70.1191 336.888 70.5112C336.876 70.9686 336.684 71.3345 336.312 71.6089C335.94 71.8833 335.454 72.0133 334.854 71.9989L320.742 71.6596C320.185 71.6462 319.739 71.4938 319.404 71.2024C319.091 70.8897 318.941 70.4828 318.954 69.9818C318.963 69.6333 319.046 69.3519 319.202 69.1377C319.358 68.9235 319.621 68.7227 319.99 68.5355L320.803 68.228C321.279 68.0651 321.532 67.8096 321.563 67.4616C321.616 67.0924 321.385 66.4983 320.871 65.6795L314.33 55.3539L321.97 48.737Z" stroke="#194280" stroke-width="2" mask="url(#path-1-outside-1_52_2847)"/>
<path d="M340.912 21.6526C343.252 21.3557 345.053 21.6871 346.315 22.6467C347.577 23.6063 348.338 25.0028 348.598 26.836C348.678 27.3968 348.713 28.029 348.705 28.7327C348.714 29.4121 348.679 30.1521 348.597 30.9529L347.518 51.2783C347.415 52.2354 347.214 52.9526 346.913 53.4299C346.634 53.9044 346.176 54.1821 345.537 54.2631C344.899 54.3441 344.369 54.1918 343.946 53.8063C343.545 53.4182 343.161 52.7752 342.796 51.8775L336.058 32.5438C335.757 31.7916 335.505 31.088 335.304 30.4329C335.121 29.7535 334.99 29.1335 334.91 28.5727C334.65 26.7394 334.995 25.2027 335.945 23.9624C336.917 22.7194 338.572 21.9494 340.912 21.6526ZM347.869 70.9283C346.635 71.0848 345.474 70.9138 344.386 70.4151C343.294 69.895 342.377 69.155 341.635 68.1953C340.91 67.2114 340.461 66.1047 340.287 64.8753C340.106 63.6028 340.231 62.4233 340.662 61.3368C341.111 60.2259 341.79 59.2944 342.701 58.5421C343.612 57.7898 344.685 57.3353 345.918 57.1788C347.173 57.0196 348.345 57.1893 349.434 57.6879C350.543 58.1838 351.459 58.913 352.18 59.8754C352.919 60.8135 353.379 61.9188 353.56 63.1913C353.734 64.4207 353.598 65.6015 353.153 66.7339C352.725 67.8421 352.047 68.7844 351.118 69.561C350.207 70.3133 349.124 70.7691 347.869 70.9283Z" stroke="#194280" stroke-width="2" mask="url(#path-1-outside-1_52_2847)"/>
<mask id="path-2-outside-2_52_2847" maskUnits="userSpaceOnUse" x="2.3667" y="0" width="355" height="73" fill="black">
<rect fill="white" x="2.3667" width="355" height="73"/>
<path d="M23.634 20.9157L22.2987 21.7206C21.8384 22.0494 21.5215 22.4066 21.3478 22.7924C21.1677 23.1573 21.154 23.5894 21.3067 24.0889L30.9251 55.5524C31.1796 56.3848 31.5783 56.9184 32.1211 57.1533C32.6576 57.3674 33.3605 57.3555 34.2299 57.1178L37.987 56.0904C39.1255 55.7791 40.0507 55.357 40.7626 54.8241C41.4952 54.2856 42.079 53.5171 42.514 52.5188C42.9633 51.4939 43.3117 50.1021 43.5591 48.3433L44.1984 43.5009C44.3181 42.7917 44.5635 42.2736 44.9346 41.9467C45.32 41.5933 45.8383 41.4177 46.4895 41.42C47.1407 41.4224 47.6541 41.5976 48.0297 41.9459C48.4054 42.2942 48.6082 42.8475 48.6382 43.606L49.0377 55.3686C49.0469 56.4259 48.9041 57.2429 48.6093 57.8196C48.3416 58.4114 47.7938 58.8205 46.9658 59.0469C46.469 59.1828 45.9404 59.2146 45.38 59.1423C44.8466 59.0852 44.2511 59.0451 43.5936 59.022C42.9567 58.9932 42.2139 59.0948 41.3652 59.3269L18.5744 65.559C17.7878 65.7741 17.1605 65.7765 16.6925 65.5663C16.2181 65.3352 15.895 64.9387 15.7233 64.3769C15.4306 63.4197 15.7167 62.6312 16.5815 62.0114L17.9168 61.2065C18.3977 60.8721 18.7179 60.5252 18.8772 60.166C19.0509 59.7802 19.0614 59.3377 18.9087 58.8382L9.2903 27.3747C9.13763 26.8753 8.88222 26.5167 8.52405 26.299C8.18023 26.0548 7.71059 25.9126 7.11514 25.8725L5.53173 25.8658C4.45068 25.778 3.76385 25.2556 3.47122 24.2983C3.2931 23.7157 3.34263 23.2173 3.61982 22.8033C3.897 22.3893 4.42889 22.0747 5.21549 21.8596L21.6721 17.3596C22.4587 17.1445 23.0756 17.1449 23.523 17.3609C23.991 17.5711 24.3141 17.9676 24.4922 18.5502C24.7848 19.5074 24.4987 20.296 23.634 20.9157Z"/>
<path d="M92.9095 31.9829C93.0669 33.3463 92.815 34.4345 92.1536 35.2475C91.511 36.0366 90.4966 36.5028 89.1104 36.646L69.629 38.6588L69.2878 35.7046L80.1321 34.5842C81.2624 34.4674 81.7663 33.8788 81.6438 32.8183C81.3238 30.0481 80.6717 28.0459 79.6875 26.8117C78.7246 25.5752 77.5501 25.0286 76.1639 25.1718C75.1403 25.2776 74.2632 25.7186 73.5328 26.4949C72.7999 27.2495 72.2776 28.3328 71.966 29.7447C71.6518 31.135 71.6072 32.8041 71.8322 34.7519C72.3021 38.8206 73.5679 41.7449 75.6294 43.5249C77.7097 45.281 80.3067 45.9982 83.4203 45.6765C85.0624 45.5068 86.492 45.0854 87.7091 44.4121C88.9475 43.7367 89.9671 42.7553 90.768 41.468C91.2223 40.9174 91.5781 40.5412 91.8353 40.3394C92.0926 40.1376 92.3598 40.0224 92.637 39.9937C93.0209 39.9541 93.3206 40.1202 93.5362 40.4922C93.7494 40.8424 93.8859 41.2773 93.9459 41.7967C94.1207 43.684 93.6834 45.5031 92.634 47.2541C91.5821 48.9834 90.0247 50.4474 87.962 51.646C85.918 52.8208 83.4672 53.5558 80.6095 53.8511C77.4319 54.1794 74.5206 53.8232 71.8754 52.7824C69.2303 51.7417 67.0476 50.1276 65.3275 47.9401C63.6287 45.7503 62.5993 43.0972 62.2393 39.9807C61.8443 36.5613 62.1699 33.4944 63.2159 30.7802C64.262 28.066 65.9714 25.8636 68.3443 24.173C70.7146 22.4607 73.6805 21.4206 77.2419 21.0527C80.3129 20.7354 82.9652 20.9979 85.199 21.8402C87.4541 22.6804 89.2342 23.9857 90.5393 25.7562C91.8419 27.505 92.632 29.5806 92.9095 31.9829Z"/>
<path d="M105.597 23.5761L104.37 23.1649C103.853 22.9963 103.476 22.7826 103.237 22.5237C103.019 22.2429 102.907 21.9063 102.902 21.5141C102.896 20.9912 103.073 20.586 103.434 20.2987C103.795 20.0114 104.265 19.8645 104.843 19.8581L106.708 19.8373C107.158 19.8323 107.554 19.7298 107.894 19.5299C108.256 19.3079 108.669 18.922 109.134 18.372L113.41 13.1269C113.98 12.4668 114.521 11.9813 115.031 11.6705C115.542 11.3597 116.044 11.2016 116.537 11.1961C117.073 11.1901 117.493 11.3707 117.798 11.7378C118.102 12.083 118.258 12.5825 118.267 13.2362L118.604 40.331C118.623 41.878 118.917 43.0624 119.484 43.8842C120.073 44.6839 120.882 45.0781 121.911 45.0666C122.704 45.0578 123.313 44.8657 123.737 44.4906C124.182 44.1151 124.531 43.6972 124.782 43.2367C125.055 42.7543 125.318 42.3264 125.57 41.9531C125.844 41.5796 126.217 41.3902 126.689 41.385C127.053 41.3809 127.344 41.5084 127.562 41.7675C127.801 42.0263 127.924 42.4717 127.932 43.1036C127.951 44.6506 127.508 46.0829 126.603 47.4005C125.697 48.6964 124.435 49.7456 122.815 50.5481C121.217 51.3287 119.379 51.7305 117.299 51.7537C114.17 51.7886 111.727 51.0422 109.972 49.5145C108.216 47.965 107.319 45.6215 107.28 42.4839L107.07 25.6191C107.062 25.009 106.939 24.5636 106.699 24.283C106.481 24.0021 106.114 23.7665 105.597 23.5761ZM114.249 23.7085L114.2 19.7538L125.421 19.6287C125.999 19.6223 126.462 19.7479 126.808 20.0055C127.154 20.2414 127.33 20.599 127.336 21.0784C127.345 21.7756 127.009 22.3677 126.329 22.8547C125.671 23.3415 124.57 23.5935 123.026 23.6107L114.249 23.7085Z"/>
<path d="M142.379 12.4521C140.302 12.3632 138.751 11.8171 137.726 10.8136C136.723 9.78924 136.261 8.46088 136.339 6.82849C136.425 5.02198 137.149 3.58078 138.509 2.50489C139.87 1.429 141.46 0.929998 143.281 1.00789C145.423 1.09952 147.144 1.89291 148.446 3.38806C149.748 4.88321 150.332 7.04552 150.196 9.87499C150.077 12.378 149.52 14.6005 148.525 16.5427C147.532 18.4631 146.223 20.0428 144.597 21.2818C142.972 22.499 141.13 23.3144 139.072 23.728C138.226 23.9099 137.572 23.9037 137.109 23.7094C136.667 23.5161 136.394 23.1772 136.288 22.6929C136.181 22.2521 136.275 21.8417 136.572 21.4619C136.891 21.0829 137.465 20.7476 138.294 20.456C139.712 19.9932 140.899 19.4006 141.856 18.6782C142.836 17.935 143.571 17.1486 144.061 16.319C144.574 15.4685 144.848 14.6733 144.884 13.9333C144.904 13.5198 144.801 13.1882 144.577 12.9387C144.376 12.6684 143.964 12.5199 143.343 12.4934L142.379 12.4521Z"/>
<path d="M172.689 24.7664C171.323 24.6433 170.244 24.8742 169.452 25.4592C168.684 26.0244 168.252 26.7839 168.156 27.7377C168.097 28.323 168.16 28.8755 168.345 29.3953C168.532 29.8933 168.978 30.3819 169.684 30.8611C170.392 31.3186 171.489 31.7674 172.974 32.2074C176.556 33.2299 179.253 34.3696 181.065 35.6266C182.901 36.8637 184.109 38.2412 184.689 39.759C185.292 41.257 185.503 42.9057 185.322 44.7049C184.993 47.9782 183.6 50.4668 181.145 52.1706C178.692 53.8527 175.276 54.4967 170.899 54.1025C169.383 53.966 168.169 53.7253 167.255 53.3806C166.34 53.0575 165.595 52.7498 165.021 52.4575C164.471 52.1455 163.971 51.9693 163.523 51.9289C163.032 51.8847 162.613 51.9782 162.267 52.2095C161.944 52.421 161.62 52.6434 161.295 52.8766C160.97 53.1098 160.572 53.2053 160.102 53.163C159.633 53.1207 159.294 52.948 159.088 52.6451C158.879 52.3638 158.714 51.8676 158.591 51.1567L157.285 44.8705C157.106 43.87 157.098 43.0928 157.261 42.5388C157.448 41.965 157.841 41.5957 158.439 41.4308C159.059 41.2679 159.582 41.315 160.009 41.5722C160.438 41.8076 160.812 42.257 161.134 42.9203C161.937 44.5676 162.824 45.9271 163.793 46.9987C164.784 48.0723 165.843 48.9004 166.969 49.4831C168.119 50.046 169.313 50.3832 170.551 50.4947C172.196 50.6428 173.456 50.4282 174.333 49.8509C175.21 49.2737 175.703 48.4431 175.812 47.3592C175.88 46.6872 175.768 46.0866 175.476 45.5572C175.208 45.0081 174.604 44.4834 173.663 43.983C172.746 43.463 171.357 42.9222 169.496 42.3609C166.629 41.5122 164.382 40.5113 162.753 39.3584C161.126 38.1838 160.001 36.8357 159.378 35.3141C158.777 33.7944 158.575 32.059 158.771 30.108C158.977 28.0703 159.689 26.3408 160.91 24.9196C162.13 23.4983 163.711 22.4594 165.651 21.8029C167.594 21.1248 169.782 20.8953 172.217 21.1146C173.775 21.2549 175.001 21.4965 175.893 21.8393C176.806 22.1841 177.537 22.5233 178.085 22.857C178.656 23.171 179.22 23.353 179.775 23.403C180.309 23.4511 180.76 23.3604 181.128 23.1311C181.519 22.8819 181.888 22.6417 182.234 22.4105C182.581 22.1792 182.989 22.0847 183.459 22.127C183.864 22.1635 184.18 22.3451 184.406 22.6716C184.655 22.9784 184.809 23.4844 184.867 24.1897L185.555 30.1905C185.63 31.1597 185.577 31.8987 185.397 32.4074C185.24 32.8964 184.873 33.2243 184.296 33.391C183.695 33.5776 183.184 33.5206 182.762 33.2201C182.361 32.9215 181.961 32.4042 181.561 31.6682C180.398 29.3104 179.028 27.6121 177.452 26.5734C175.9 25.5148 174.312 24.9125 172.689 24.7664Z"/>
<path d="M216.341 30.7323L215.199 30.1381C214.717 29.8924 214.381 29.6236 214.189 29.3318C214.022 29.0216 213.97 28.673 214.032 28.2859C214.116 27.7699 214.361 27.3982 214.766 27.1708C215.172 26.9435 215.662 26.8713 216.235 26.9542L218.081 27.2212C218.527 27.2857 218.935 27.2457 219.306 27.1013C219.702 26.9385 220.176 26.622 220.73 26.152L225.857 21.6453C226.534 21.0832 227.152 20.6884 227.71 20.461C228.268 20.2337 228.791 20.1553 229.279 20.2259C229.81 20.3026 230.194 20.5453 230.432 20.9538C230.673 21.3408 230.742 21.8568 230.638 22.5019L226.314 49.24C226.067 50.7667 226.153 51.9784 226.573 52.8753C227.017 53.7538 227.749 54.2667 228.768 54.4141C229.553 54.5276 230.187 54.4324 230.671 54.1282C231.175 53.8271 231.592 53.4692 231.919 53.0545C232.272 52.6214 232.605 52.2405 232.919 51.9118C233.254 51.5861 233.655 51.4571 234.121 51.5246C234.482 51.5768 234.748 51.7473 234.918 52.036C235.11 52.3278 235.156 52.7855 235.055 53.409C234.808 54.9357 234.124 56.2781 233.003 57.4362C231.885 58.5729 230.457 59.4116 228.719 59.9524C227.006 60.4747 225.12 60.587 223.061 60.2892C219.963 59.841 217.677 58.7293 216.205 56.954C214.737 55.1572 214.253 52.7106 214.753 49.6143L217.445 32.9715C217.542 32.3695 217.497 31.9118 217.308 31.5985C217.141 31.2882 216.819 30.9995 216.341 30.7323ZM224.867 32.1968L225.498 28.2941L236.608 29.9011C237.181 29.984 237.617 30.179 237.915 30.4861C238.216 30.7718 238.328 31.1511 238.252 31.6242C238.14 32.3122 237.707 32.8437 236.951 33.2185C236.217 33.5964 235.086 33.6748 233.558 33.4538L224.867 32.1968Z"/>
<path d="M259.336 60.5476L259.455 59.8388L258.67 59.6548L262.033 39.6465C262.228 38.4866 262.074 37.5275 261.571 36.7692C261.089 36.0141 260.318 35.5568 259.258 35.3974C258.367 35.2635 257.612 35.3592 256.992 35.6844C256.372 36.0096 256.012 36.4729 255.911 37.0744L255.374 40.2641C255.115 41.8106 254.393 42.9354 253.209 43.6384C252.051 44.323 250.517 44.5219 248.609 44.235C246.976 43.9895 245.807 43.4395 245.103 42.5848C244.42 41.7334 244.187 40.6633 244.403 39.3745C244.638 37.9783 245.463 36.6929 246.878 35.5182C248.296 34.322 250.258 33.4498 252.764 32.9015C255.269 32.3533 258.282 32.3437 261.802 32.8729C266.001 33.5041 268.979 34.7997 270.736 36.7597C272.519 38.7014 273.176 41.0684 272.706 43.8608L270.004 59.9383C269.921 60.4323 269.96 60.8456 270.122 61.1782C270.308 61.4925 270.624 61.6831 271.069 61.7501C271.472 61.8107 271.798 61.7495 272.046 61.5666C272.315 61.3868 272.562 61.2147 272.785 61.05C272.937 60.9188 273.097 60.8106 273.263 60.7256C273.43 60.6405 273.609 60.6123 273.799 60.641C274.118 60.6888 274.331 60.842 274.44 61.1006C274.548 61.3592 274.572 61.6711 274.511 62.0362C274.37 62.8739 273.925 63.71 273.176 64.5443C272.431 65.3572 271.421 65.9982 270.146 66.4672C268.875 66.9148 267.37 67.0079 265.631 66.7464C263.511 66.4277 261.86 65.706 260.68 64.5815C259.524 63.4388 259.076 62.0941 259.336 60.5476ZM240.482 55.1366C240.955 52.3228 242.584 50.2663 245.367 48.967C248.155 47.6463 251.796 47.3239 256.292 47.9997C257.607 48.1974 258.755 48.4801 259.737 48.848C260.743 49.1975 261.566 49.6074 262.204 50.0778L260.902 52.3926C260.359 52.0026 259.813 51.6894 259.266 51.453C258.74 51.2197 258.138 51.0521 257.459 50.9501C256.06 50.7397 254.888 50.982 253.945 51.6771C253.027 52.3539 252.445 53.4226 252.2 54.8832C251.951 56.3653 252.109 57.5563 252.676 58.4562C253.267 59.3379 254.145 59.8664 255.312 60.0417C256.181 60.1724 257.053 60.0943 257.927 59.8073C258.802 59.5204 259.539 59.0806 260.138 58.4881L260.496 60.8212C259.144 62.2696 257.408 63.2859 255.288 63.8701C253.192 64.4359 251.042 64.5531 248.837 64.2216C245.953 63.788 243.739 62.7285 242.196 61.043C240.678 59.3393 240.107 57.3705 240.482 55.1366Z"/>
<path d="M299.778 23.5828L294.44 63.551C294.336 64.3284 294.336 64.8987 294.438 65.262C294.565 65.6062 294.8 65.8755 295.142 66.0699L296.024 66.5044C296.47 66.7331 296.769 66.9993 296.924 67.3029C297.099 67.609 297.161 67.9564 297.109 68.3451C297.04 68.8633 296.814 69.2532 296.434 69.5148C296.055 69.7549 295.504 69.8316 294.781 69.7452L281.209 68.1238C280.463 68.0348 279.939 67.8296 279.636 67.5082C279.357 67.1678 279.252 66.7384 279.321 66.2202C279.373 65.8315 279.514 65.5083 279.743 65.2505C279.993 64.9952 280.354 64.8079 280.824 64.6885L281.857 64.4829C282.218 64.3725 282.494 64.1642 282.687 63.8581C282.903 63.533 283.062 62.9925 283.163 62.2368L287.653 28.6168C287.736 27.9906 287.71 27.5378 287.575 27.2583C287.442 26.9573 287.19 26.7407 286.818 26.6085L285.658 26.3054C285.249 26.125 284.965 25.9046 284.805 25.6442C284.667 25.3863 284.622 25.0738 284.671 24.7068C284.732 24.2533 284.896 23.911 285.165 23.6799C285.455 23.4513 285.947 23.2469 286.642 23.0666L293.458 21.347C294.51 21.0779 295.334 20.9021 295.929 20.8196C296.545 20.7397 297.066 20.7251 297.492 20.776C298.365 20.8803 298.983 21.1954 299.345 21.7213C299.731 22.2281 299.876 22.8486 299.778 23.5828Z"/>
<path d="M302.183 71.1564C301.454 71.1389 300.933 70.9847 300.619 70.6938C300.306 70.3811 300.156 69.9633 300.17 69.4405C300.181 69.0484 300.286 68.7131 300.487 68.4346C300.709 68.1566 301.047 67.9359 301.502 67.7724L302.507 67.4696C302.854 67.3254 303.107 67.0917 303.266 66.7686C303.447 66.4242 303.547 65.8708 303.568 65.1084L304.479 31.1927C304.496 30.561 304.423 30.1123 304.258 29.8468C304.094 29.5595 303.821 29.3677 303.437 29.2713L302.253 29.0793C301.827 28.9383 301.522 28.7457 301.335 28.5014C301.17 28.2577 301.093 27.9507 301.103 27.5804C301.115 27.1229 301.242 26.7664 301.485 26.5106C301.749 26.2554 302.217 26.0051 302.889 25.7597L309.482 23.4007C310.456 23.0536 311.234 22.8107 311.817 22.6722C312.422 22.5123 313.003 22.4391 313.56 22.4525C314.374 22.4721 314.989 22.7266 315.405 23.2162C315.821 23.6839 316.02 24.2881 316 25.0287L314.916 65.3486C314.895 66.1327 314.954 66.7009 315.095 67.053C315.258 67.3839 315.519 67.6299 315.879 67.7912L316.77 68.1722C317.446 68.5373 317.775 69.0683 317.756 69.7653C317.725 70.9416 316.991 71.5125 315.555 71.4779L302.183 71.1564ZM311.791 57.1323L324.704 47.0457C325.448 46.4751 325.796 45.9059 325.747 45.338C325.698 44.7483 325.282 44.2914 324.497 43.9674L323.509 43.6167C323.106 43.4544 322.822 43.2514 322.657 43.0077C322.514 42.7645 322.447 42.4468 322.458 42.0547C322.472 41.532 322.665 41.1334 323.037 40.8589C323.409 40.5627 323.906 40.4221 324.527 40.4371L336.421 40.723C337.064 40.7385 337.564 40.8922 337.921 41.1841C338.277 41.4761 338.449 41.8725 338.435 42.3735C338.422 42.8528 338.262 43.2521 337.953 43.5717C337.644 43.8912 337.004 44.1701 336.033 44.4083C334.911 44.6646 333.882 45.0432 332.946 45.5438C332.011 46.0226 330.843 46.801 329.442 47.879L313.024 60.3334L311.791 57.1323ZM324.337 48.737L335.414 66.2338C335.826 66.854 336.189 67.3205 336.502 67.6332C336.837 67.9246 337.28 68.2077 337.83 68.4825C338.294 68.777 338.65 69.0907 338.898 69.4236C339.147 69.7566 339.266 70.1191 339.255 70.5112C339.243 70.9686 339.051 71.3345 338.679 71.6089C338.307 71.8833 337.821 72.0133 337.221 71.9989L323.109 71.6596C322.552 71.6462 322.106 71.4938 321.77 71.2024C321.457 70.8897 321.307 70.4828 321.321 69.9818C321.33 69.6333 321.413 69.3519 321.569 69.1377C321.725 68.9235 321.987 68.7227 322.357 68.5355L323.169 68.228C323.645 68.0651 323.899 67.8096 323.93 67.4616C323.982 67.0924 323.752 66.4983 323.238 65.6795L316.696 55.3539L324.337 48.737Z"/>
<path d="M343.279 21.6526C345.618 21.3557 347.419 21.6871 348.681 22.6467C349.944 23.6063 350.705 25.0028 350.965 26.836C351.044 27.3968 351.08 28.029 351.071 28.7327C351.081 29.4121 351.045 30.1521 350.964 30.9529L349.884 51.2783C349.782 52.2354 349.58 52.9526 349.28 53.4299C349.001 53.9044 348.542 54.1821 347.904 54.2631C347.266 54.3441 346.736 54.1918 346.313 53.8063C345.911 53.4182 345.528 52.7752 345.162 51.8775L338.425 32.5438C338.123 31.7916 337.872 31.088 337.671 30.4329C337.488 29.7535 337.356 29.1335 337.277 28.5727C337.017 26.7394 337.362 25.2027 338.312 23.9624C339.283 22.7194 340.939 21.9494 343.279 21.6526ZM350.235 70.9283C349.002 71.0848 347.841 70.9138 346.752 70.4151C345.661 69.895 344.744 69.155 344.001 68.1953C343.277 67.2114 342.828 66.1047 342.653 64.8753C342.473 63.6028 342.598 62.4233 343.029 61.3368C343.477 60.2259 344.157 59.2944 345.068 58.5421C345.979 57.7898 347.051 57.3353 348.285 57.1788C349.54 57.0196 350.712 57.1893 351.8 57.6879C352.91 58.1838 353.826 58.913 354.547 59.8754C355.286 60.8135 355.746 61.9188 355.926 63.1913C356.101 64.4207 355.965 65.6015 355.52 66.7339C355.092 67.8421 354.414 68.7844 353.484 69.561C352.573 70.3133 351.49 70.7691 350.235 70.9283Z"/>
</mask>
<path d="M23.634 20.9157L22.2987 21.7206C21.8384 22.0494 21.5215 22.4066 21.3478 22.7924C21.1677 23.1573 21.154 23.5894 21.3067 24.0889L30.9251 55.5524C31.1796 56.3848 31.5783 56.9184 32.1211 57.1533C32.6576 57.3674 33.3605 57.3555 34.2299 57.1178L37.987 56.0904C39.1255 55.7791 40.0507 55.357 40.7626 54.8241C41.4952 54.2856 42.079 53.5171 42.514 52.5188C42.9633 51.4939 43.3117 50.1021 43.5591 48.3433L44.1984 43.5009C44.3181 42.7917 44.5635 42.2736 44.9346 41.9467C45.32 41.5933 45.8383 41.4177 46.4895 41.42C47.1407 41.4224 47.6541 41.5976 48.0297 41.9459C48.4054 42.2942 48.6082 42.8475 48.6382 43.606L49.0377 55.3686C49.0469 56.4259 48.9041 57.2429 48.6093 57.8196C48.3416 58.4114 47.7938 58.8205 46.9658 59.0469C46.469 59.1828 45.9404 59.2146 45.38 59.1423C44.8466 59.0852 44.2511 59.0451 43.5936 59.022C42.9567 58.9932 42.2139 59.0948 41.3652 59.3269L18.5744 65.559C17.7878 65.7741 17.1605 65.7765 16.6925 65.5663C16.2181 65.3352 15.895 64.9387 15.7233 64.3769C15.4306 63.4197 15.7167 62.6312 16.5815 62.0114L17.9168 61.2065C18.3977 60.8721 18.7179 60.5252 18.8772 60.166C19.0509 59.7802 19.0614 59.3377 18.9087 58.8382L9.2903 27.3747C9.13763 26.8753 8.88222 26.5167 8.52405 26.299C8.18023 26.0548 7.71059 25.9126 7.11514 25.8725L5.53173 25.8658C4.45068 25.778 3.76385 25.2556 3.47122 24.2983C3.2931 23.7157 3.34263 23.2173 3.61982 22.8033C3.897 22.3893 4.42889 22.0747 5.21549 21.8596L21.6721 17.3596C22.4587 17.1445 23.0756 17.1449 23.523 17.3609C23.991 17.5711 24.3141 17.9676 24.4922 18.5502C24.7848 19.5074 24.4987 20.296 23.634 20.9157Z" stroke="white" stroke-width="2" mask="url(#path-2-outside-2_52_2847)"/>
<path d="M92.9095 31.9829C93.0669 33.3463 92.815 34.4345 92.1536 35.2475C91.511 36.0366 90.4966 36.5028 89.1104 36.646L69.629 38.6588L69.2878 35.7046L80.1321 34.5842C81.2624 34.4674 81.7663 33.8788 81.6438 32.8183C81.3238 30.0481 80.6717 28.0459 79.6875 26.8117C78.7246 25.5752 77.5501 25.0286 76.1639 25.1718C75.1403 25.2776 74.2632 25.7186 73.5328 26.4949C72.7999 27.2495 72.2776 28.3328 71.966 29.7447C71.6518 31.135 71.6072 32.8041 71.8322 34.7519C72.3021 38.8206 73.5679 41.7449 75.6294 43.5249C77.7097 45.281 80.3067 45.9982 83.4203 45.6765C85.0624 45.5068 86.492 45.0854 87.7091 44.4121C88.9475 43.7367 89.9671 42.7553 90.768 41.468C91.2223 40.9174 91.5781 40.5412 91.8353 40.3394C92.0926 40.1376 92.3598 40.0224 92.637 39.9937C93.0209 39.9541 93.3206 40.1202 93.5362 40.4922C93.7494 40.8424 93.8859 41.2773 93.9459 41.7967C94.1207 43.684 93.6834 45.5031 92.634 47.2541C91.5821 48.9834 90.0247 50.4474 87.962 51.646C85.918 52.8208 83.4672 53.5558 80.6095 53.8511C77.4319 54.1794 74.5206 53.8232 71.8754 52.7824C69.2303 51.7417 67.0476 50.1276 65.3275 47.9401C63.6287 45.7503 62.5993 43.0972 62.2393 39.9807C61.8443 36.5613 62.1699 33.4944 63.2159 30.7802C64.262 28.066 65.9714 25.8636 68.3443 24.173C70.7146 22.4607 73.6805 21.4206 77.2419 21.0527C80.3129 20.7354 82.9652 20.9979 85.199 21.8402C87.4541 22.6804 89.2342 23.9857 90.5393 25.7562C91.8419 27.505 92.632 29.5806 92.9095 31.9829Z" stroke="white" stroke-width="2" mask="url(#path-2-outside-2_52_2847)"/>
<path d="M105.597 23.5761L104.37 23.1649C103.853 22.9963 103.476 22.7826 103.237 22.5237C103.019 22.2429 102.907 21.9063 102.902 21.5141C102.896 20.9912 103.073 20.586 103.434 20.2987C103.795 20.0114 104.265 19.8645 104.843 19.8581L106.708 19.8373C107.158 19.8323 107.554 19.7298 107.894 19.5299C108.256 19.3079 108.669 18.922 109.134 18.372L113.41 13.1269C113.98 12.4668 114.521 11.9813 115.031 11.6705C115.542 11.3597 116.044 11.2016 116.537 11.1961C117.073 11.1901 117.493 11.3707 117.798 11.7378C118.102 12.083 118.258 12.5825 118.267 13.2362L118.604 40.331C118.623 41.878 118.917 43.0624 119.484 43.8842C120.073 44.6839 120.882 45.0781 121.911 45.0666C122.704 45.0578 123.313 44.8657 123.737 44.4906C124.182 44.1151 124.531 43.6972 124.782 43.2367C125.055 42.7543 125.318 42.3264 125.57 41.9531C125.844 41.5796 126.217 41.3902 126.689 41.385C127.053 41.3809 127.344 41.5084 127.562 41.7675C127.801 42.0263 127.924 42.4717 127.932 43.1036C127.951 44.6506 127.508 46.0829 126.603 47.4005C125.697 48.6964 124.435 49.7456 122.815 50.5481C121.217 51.3287 119.379 51.7305 117.299 51.7537C114.17 51.7886 111.727 51.0422 109.972 49.5145C108.216 47.965 107.319 45.6215 107.28 42.4839L107.07 25.6191C107.062 25.009 106.939 24.5636 106.699 24.283C106.481 24.0021 106.114 23.7665 105.597 23.5761ZM114.249 23.7085L114.2 19.7538L125.421 19.6287C125.999 19.6223 126.462 19.7479 126.808 20.0055C127.154 20.2414 127.33 20.599 127.336 21.0784C127.345 21.7756 127.009 22.3677 126.329 22.8547C125.671 23.3415 124.57 23.5935 123.026 23.6107L114.249 23.7085Z" stroke="white" stroke-width="2" mask="url(#path-2-outside-2_52_2847)"/>
<path d="M142.379 12.4521C140.302 12.3632 138.751 11.8171 137.726 10.8136C136.723 9.78924 136.261 8.46088 136.339 6.82849C136.425 5.02198 137.149 3.58078 138.509 2.50489C139.87 1.429 141.46 0.929998 143.281 1.00789C145.423 1.09952 147.144 1.89291 148.446 3.38806C149.748 4.88321 150.332 7.04552 150.196 9.87499C150.077 12.378 149.52 14.6005 148.525 16.5427C147.532 18.4631 146.223 20.0428 144.597 21.2818C142.972 22.499 141.13 23.3144 139.072 23.728C138.226 23.9099 137.572 23.9037 137.109 23.7094C136.667 23.5161 136.394 23.1772 136.288 22.6929C136.181 22.2521 136.275 21.8417 136.572 21.4619C136.891 21.0829 137.465 20.7476 138.294 20.456C139.712 19.9932 140.899 19.4006 141.856 18.6782C142.836 17.935 143.571 17.1486 144.061 16.319C144.574 15.4685 144.848 14.6733 144.884 13.9333C144.904 13.5198 144.801 13.1882 144.577 12.9387C144.376 12.6684 143.964 12.5199 143.343 12.4934L142.379 12.4521Z" stroke="white" stroke-width="2" mask="url(#path-2-outside-2_52_2847)"/>
<path d="M172.689 24.7664C171.323 24.6433 170.244 24.8742 169.452 25.4592C168.684 26.0244 168.252 26.7839 168.156 27.7377C168.097 28.323 168.16 28.8755 168.345 29.3953C168.532 29.8933 168.978 30.3819 169.684 30.8611C170.392 31.3186 171.489 31.7674 172.974 32.2074C176.556 33.2299 179.253 34.3696 181.065 35.6266C182.901 36.8637 184.109 38.2412 184.689 39.759C185.292 41.257 185.503 42.9057 185.322 44.7049C184.993 47.9782 183.6 50.4668 181.145 52.1706C178.692 53.8527 175.276 54.4967 170.899 54.1025C169.383 53.966 168.169 53.7253 167.255 53.3806C166.34 53.0575 165.595 52.7498 165.021 52.4575C164.471 52.1455 163.971 51.9693 163.523 51.9289C163.032 51.8847 162.613 51.9782 162.267 52.2095C161.944 52.421 161.62 52.6434 161.295 52.8766C160.97 53.1098 160.572 53.2053 160.102 53.163C159.633 53.1207 159.294 52.948 159.088 52.6451C158.879 52.3638 158.714 51.8676 158.591 51.1567L157.285 44.8705C157.106 43.87 157.098 43.0928 157.261 42.5388C157.448 41.965 157.841 41.5957 158.439 41.4308C159.059 41.2679 159.582 41.315 160.009 41.5722C160.438 41.8076 160.812 42.257 161.134 42.9203C161.937 44.5676 162.824 45.9271 163.793 46.9987C164.784 48.0723 165.843 48.9004 166.969 49.4831C168.119 50.046 169.313 50.3832 170.551 50.4947C172.196 50.6428 173.456 50.4282 174.333 49.8509C175.21 49.2737 175.703 48.4431 175.812 47.3592C175.88 46.6872 175.768 46.0866 175.476 45.5572C175.208 45.0081 174.604 44.4834 173.663 43.983C172.746 43.463 171.357 42.9222 169.496 42.3609C166.629 41.5122 164.382 40.5113 162.753 39.3584C161.126 38.1838 160.001 36.8357 159.378 35.3141C158.777 33.7944 158.575 32.059 158.771 30.108C158.977 28.0703 159.689 26.3408 160.91 24.9196C162.13 23.4983 163.711 22.4594 165.651 21.8029C167.594 21.1248 169.782 20.8953 172.217 21.1146C173.775 21.2549 175.001 21.4965 175.893 21.8393C176.806 22.1841 177.537 22.5233 178.085 22.857C178.656 23.171 179.22 23.353 179.775 23.403C180.309 23.4511 180.76 23.3604 181.128 23.1311C181.519 22.8819 181.888 22.6417 182.234 22.4105C182.581 22.1792 182.989 22.0847 183.459 22.127C183.864 22.1635 184.18 22.3451 184.406 22.6716C184.655 22.9784 184.809 23.4844 184.867 24.1897L185.555 30.1905C185.63 31.1597 185.577 31.8987 185.397 32.4074C185.24 32.8964 184.873 33.2243 184.296 33.391C183.695 33.5776 183.184 33.5206 182.762 33.2201C182.361 32.9215 181.961 32.4042 181.561 31.6682C180.398 29.3104 179.028 27.6121 177.452 26.5734C175.9 25.5148 174.312 24.9125 172.689 24.7664Z" stroke="white" stroke-width="2" mask="url(#path-2-outside-2_52_2847)"/>
<path d="M216.341 30.7323L215.199 30.1381C214.717 29.8924 214.381 29.6236 214.189 29.3318C214.022 29.0216 213.97 28.673 214.032 28.2859C214.116 27.7699 214.361 27.3982 214.766 27.1708C215.172 26.9435 215.662 26.8713 216.235 26.9542L218.081 27.2212C218.527 27.2857 218.935 27.2457 219.306 27.1013C219.702 26.9385 220.176 26.622 220.73 26.152L225.857 21.6453C226.534 21.0832 227.152 20.6884 227.71 20.461C228.268 20.2337 228.791 20.1553 229.279 20.2259C229.81 20.3026 230.194 20.5453 230.432 20.9538C230.673 21.3408 230.742 21.8568 230.638 22.5019L226.314 49.24C226.067 50.7667 226.153 51.9784 226.573 52.8753C227.017 53.7538 227.749 54.2667 228.768 54.4141C229.553 54.5276 230.187 54.4324 230.671 54.1282C231.175 53.8271 231.592 53.4692 231.919 53.0545C232.272 52.6214 232.605 52.2405 232.919 51.9118C233.254 51.5861 233.655 51.4571 234.121 51.5246C234.482 51.5768 234.748 51.7473 234.918 52.036C235.11 52.3278 235.156 52.7855 235.055 53.409C234.808 54.9357 234.124 56.2781 233.003 57.4362C231.885 58.5729 230.457 59.4116 228.719 59.9524C227.006 60.4747 225.12 60.587 223.061 60.2892C219.963 59.841 217.677 58.7293 216.205 56.954C214.737 55.1572 214.253 52.7106 214.753 49.6143L217.445 32.9715C217.542 32.3695 217.497 31.9118 217.308 31.5985C217.141 31.2882 216.819 30.9995 216.341 30.7323ZM224.867 32.1968L225.498 28.2941L236.608 29.9011C237.181 29.984 237.617 30.179 237.915 30.4861C238.216 30.7718 238.328 31.1511 238.252 31.6242C238.14 32.3122 237.707 32.8437 236.951 33.2185C236.217 33.5964 235.086 33.6748 233.558 33.4538L224.867 32.1968Z" stroke="white" stroke-width="2" mask="url(#path-2-outside-2_52_2847)"/>
<path d="M259.336 60.5476L259.455 59.8388L258.67 59.6548L262.033 39.6465C262.228 38.4866 262.074 37.5275 261.571 36.7692C261.089 36.0141 260.318 35.5568 259.258 35.3974C258.367 35.2635 257.612 35.3592 256.992 35.6844C256.372 36.0096 256.012 36.4729 255.911 37.0744L255.374 40.2641C255.115 41.8106 254.393 42.9354 253.209 43.6384C252.051 44.323 250.517 44.5219 248.609 44.235C246.976 43.9895 245.807 43.4395 245.103 42.5848C244.42 41.7334 244.187 40.6633 244.403 39.3745C244.638 37.9783 245.463 36.6929 246.878 35.5182C248.296 34.322 250.258 33.4498 252.764 32.9015C255.269 32.3533 258.282 32.3437 261.802 32.8729C266.001 33.5041 268.979 34.7997 270.736 36.7597C272.519 38.7014 273.176 41.0684 272.706 43.8608L270.004 59.9383C269.921 60.4323 269.96 60.8456 270.122 61.1782C270.308 61.4925 270.624 61.6831 271.069 61.7501C271.472 61.8107 271.798 61.7495 272.046 61.5666C272.315 61.3868 272.562 61.2147 272.785 61.05C272.937 60.9188 273.097 60.8106 273.263 60.7256C273.43 60.6405 273.609 60.6123 273.799 60.641C274.118 60.6888 274.331 60.842 274.44 61.1006C274.548 61.3592 274.572 61.6711 274.511 62.0362C274.37 62.8739 273.925 63.71 273.176 64.5443C272.431 65.3572 271.421 65.9982 270.146 66.4672C268.875 66.9148 267.37 67.0079 265.631 66.7464C263.511 66.4277 261.86 65.706 260.68 64.5815C259.524 63.4388 259.076 62.0941 259.336 60.5476ZM240.482 55.1366C240.955 52.3228 242.584 50.2663 245.367 48.967C248.155 47.6463 251.796 47.3239 256.292 47.9997C257.607 48.1974 258.755 48.4801 259.737 48.848C260.743 49.1975 261.566 49.6074 262.204 50.0778L260.902 52.3926C260.359 52.0026 259.813 51.6894 259.266 51.453C258.74 51.2197 258.138 51.0521 257.459 50.9501C256.06 50.7397 254.888 50.982 253.945 51.6771C253.027 52.3539 252.445 53.4226 252.2 54.8832C251.951 56.3653 252.109 57.5563 252.676 58.4562C253.267 59.3379 254.145 59.8664 255.312 60.0417C256.181 60.1724 257.053 60.0943 257.927 59.8073C258.802 59.5204 259.539 59.0806 260.138 58.4881L260.496 60.8212C259.144 62.2696 257.408 63.2859 255.288 63.8701C253.192 64.4359 251.042 64.5531 248.837 64.2216C245.953 63.788 243.739 62.7285 242.196 61.043C240.678 59.3393 240.107 57.3705 240.482 55.1366Z" stroke="white" stroke-width="2" mask="url(#path-2-outside-2_52_2847)"/>
<path d="M299.778 23.5828L294.44 63.551C294.336 64.3284 294.336 64.8987 294.438 65.262C294.565 65.6062 294.8 65.8755 295.142 66.0699L296.024 66.5044C296.47 66.7331 296.769 66.9993 296.924 67.3029C297.099 67.609 297.161 67.9564 297.109 68.3451C297.04 68.8633 296.814 69.2532 296.434 69.5148C296.055 69.7549 295.504 69.8316 294.781 69.7452L281.209 68.1238C280.463 68.0348 279.939 67.8296 279.636 67.5082C279.357 67.1678 279.252 66.7384 279.321 66.2202C279.373 65.8315 279.514 65.5083 279.743 65.2505C279.993 64.9952 280.354 64.8079 280.824 64.6885L281.857 64.4829C282.218 64.3725 282.494 64.1642 282.687 63.8581C282.903 63.533 283.062 62.9925 283.163 62.2368L287.653 28.6168C287.736 27.9906 287.71 27.5378 287.575 27.2583C287.442 26.9573 287.19 26.7407 286.818 26.6085L285.658 26.3054C285.249 26.125 284.965 25.9046 284.805 25.6442C284.667 25.3863 284.622 25.0738 284.671 24.7068C284.732 24.2533 284.896 23.911 285.165 23.6799C285.455 23.4513 285.947 23.2469 286.642 23.0666L293.458 21.347C294.51 21.0779 295.334 20.9021 295.929 20.8196C296.545 20.7397 297.066 20.7251 297.492 20.776C298.365 20.8803 298.983 21.1954 299.345 21.7213C299.731 22.2281 299.876 22.8486 299.778 23.5828Z" stroke="white" stroke-width="2" mask="url(#path-2-outside-2_52_2847)"/>
<path d="M302.183 71.1564C301.454 71.1389 300.933 70.9847 300.619 70.6938C300.306 70.3811 300.156 69.9633 300.17 69.4405C300.181 69.0484 300.286 68.7131 300.487 68.4346C300.709 68.1566 301.047 67.9359 301.502 67.7724L302.507 67.4696C302.854 67.3254 303.107 67.0917 303.266 66.7686C303.447 66.4242 303.547 65.8708 303.568 65.1084L304.479 31.1927C304.496 30.561 304.423 30.1123 304.258 29.8468C304.094 29.5595 303.821 29.3677 303.437 29.2713L302.253 29.0793C301.827 28.9383 301.522 28.7457 301.335 28.5014C301.17 28.2577 301.093 27.9507 301.103 27.5804C301.115 27.1229 301.242 26.7664 301.485 26.5106C301.749 26.2554 302.217 26.0051 302.889 25.7597L309.482 23.4007C310.456 23.0536 311.234 22.8107 311.817 22.6722C312.422 22.5123 313.003 22.4391 313.56 22.4525C314.374 22.4721 314.989 22.7266 315.405 23.2162C315.821 23.6839 316.02 24.2881 316 25.0287L314.916 65.3486C314.895 66.1327 314.954 66.7009 315.095 67.053C315.258 67.3839 315.519 67.6299 315.879 67.7912L316.77 68.1722C317.446 68.5373 317.775 69.0683 317.756 69.7653C317.725 70.9416 316.991 71.5125 315.555 71.4779L302.183 71.1564ZM311.791 57.1323L324.704 47.0457C325.448 46.4751 325.796 45.9059 325.747 45.338C325.698 44.7483 325.282 44.2914 324.497 43.9674L323.509 43.6167C323.106 43.4544 322.822 43.2514 322.657 43.0077C322.514 42.7645 322.447 42.4468 322.458 42.0547C322.472 41.532 322.665 41.1334 323.037 40.8589C323.409 40.5627 323.906 40.4221 324.527 40.4371L336.421 40.723C337.064 40.7385 337.564 40.8922 337.921 41.1841C338.277 41.4761 338.449 41.8725 338.435 42.3735C338.422 42.8528 338.262 43.2521 337.953 43.5717C337.644 43.8912 337.004 44.1701 336.033 44.4083C334.911 44.6646 333.882 45.0432 332.946 45.5438C332.011 46.0226 330.843 46.801 329.442 47.879L313.024 60.3334L311.791 57.1323ZM324.337 48.737L335.414 66.2338C335.826 66.854 336.189 67.3205 336.502 67.6332C336.837 67.9246 337.28 68.2077 337.83 68.4825C338.294 68.777 338.65 69.0907 338.898 69.4236C339.147 69.7566 339.266 70.1191 339.255 70.5112C339.243 70.9686 339.051 71.3345 338.679 71.6089C338.307 71.8833 337.821 72.0133 337.221 71.9989L323.109 71.6596C322.552 71.6462 322.106 71.4938 321.77 71.2024C321.457 70.8897 321.307 70.4828 321.321 69.9818C321.33 69.6333 321.413 69.3519 321.569 69.1377C321.725 68.9235 321.987 68.7227 322.357 68.5355L323.169 68.228C323.645 68.0651 323.899 67.8096 323.93 67.4616C323.982 67.0924 323.752 66.4983 323.238 65.6795L316.696 55.3539L324.337 48.737Z" stroke="white" stroke-width="2" mask="url(#path-2-outside-2_52_2847)"/>
<path d="M343.279 21.6526C345.618 21.3557 347.419 21.6871 348.681 22.6467C349.944 23.6063 350.705 25.0028 350.965 26.836C351.044 27.3968 351.08 28.029 351.071 28.7327C351.081 29.4121 351.045 30.1521 350.964 30.9529L349.884 51.2783C349.782 52.2354 349.58 52.9526 349.28 53.4299C349.001 53.9044 348.542 54.1821 347.904 54.2631C347.266 54.3441 346.736 54.1918 346.313 53.8063C345.911 53.4182 345.528 52.7752 345.162 51.8775L338.425 32.5438C338.123 31.7916 337.872 31.088 337.671 30.4329C337.488 29.7535 337.356 29.1335 337.277 28.5727C337.017 26.7394 337.362 25.2027 338.312 23.9624C339.283 22.7194 340.939 21.9494 343.279 21.6526ZM350.235 70.9283C349.002 71.0848 347.841 70.9138 346.752 70.4151C345.661 69.895 344.744 69.155 344.001 68.1953C343.277 67.2114 342.828 66.1047 342.653 64.8753C342.473 63.6028 342.598 62.4233 343.029 61.3368C343.477 60.2259 344.157 59.2944 345.068 58.5421C345.979 57.7898 347.051 57.3353 348.285 57.1788C349.54 57.0196 350.712 57.1893 351.8 57.6879C352.91 58.1838 353.826 58.913 354.547 59.8754C355.286 60.8135 355.746 61.9188 355.926 63.1913C356.101 64.4207 355.965 65.6015 355.52 66.7339C355.092 67.8421 354.414 68.7844 353.484 69.561C352.573 70.3133 351.49 70.7691 350.235 70.9283Z" stroke="white" stroke-width="2" mask="url(#path-2-outside-2_52_2847)"/>
<path d="M24.8173 20.9157L23.482 21.7206C23.0218 22.0494 22.7048 22.4066 22.5311 22.7924C22.3511 23.1573 22.3374 23.5894 22.4901 24.0889L32.1085 55.5524C32.363 56.3848 32.7616 56.9184 33.3045 57.1533C33.8409 57.3674 34.5439 57.3555 35.4133 57.1178L39.1704 56.0904C40.3089 55.7791 41.2341 55.357 41.9459 54.8241C42.6785 54.2856 43.2623 53.5171 43.6973 52.5188C44.1467 51.4939 44.495 50.1021 44.7424 48.3433L45.3818 43.5009C45.5015 42.7917 45.7468 42.2736 46.1179 41.9467C46.5033 41.5933 47.0217 41.4177 47.6729 41.42C48.324 41.4224 48.8375 41.5976 49.2131 41.9459C49.5887 42.2942 49.7915 42.8475 49.8215 43.606L50.221 55.3686C50.2302 56.4259 50.0874 57.2429 49.7927 57.8196C49.525 58.4114 48.9771 58.8205 48.1491 59.0469C47.6523 59.1828 47.1237 59.2146 46.5633 59.1423C46.0299 59.0852 45.4345 59.0451 44.7769 59.022C44.1401 58.9932 43.3973 59.0948 42.5486 59.3269L19.7578 65.559C18.9712 65.7741 18.3439 65.7765 17.8758 65.5663C17.4014 65.3352 17.0784 64.9387 16.9066 64.3769C16.614 63.4197 16.9001 62.6312 17.7648 62.0114L19.1001 61.2065C19.5811 60.8721 19.9012 60.5252 20.0606 60.166C20.2343 59.7802 20.2448 59.3377 20.0921 58.8382L15.2829 43.1065L10.4737 27.3747C10.321 26.8753 10.0656 26.5167 9.7074 26.299C9.36358 26.0548 8.89394 25.9126 8.29849 25.8725L6.71508 25.8658C5.63403 25.778 4.9472 25.2556 4.65457 24.2983C4.47645 23.7157 4.52598 23.2173 4.80317 22.8033C5.08035 22.3893 5.61224 22.0747 6.39884 21.8596L22.8554 17.3596C23.642 17.1445 24.259 17.1449 24.7063 17.3609C25.1743 17.5711 25.4974 17.9676 25.6755 18.5502C25.9682 19.5074 25.6821 20.296 24.8173 20.9157Z" fill="#194280"/>
<path d="M94.0928 31.9829C94.2503 33.3463 93.9983 34.4345 93.3369 35.2475C92.6943 36.0366 91.6799 36.5028 90.2937 36.646L70.8124 38.6588L70.4711 35.7046L81.3154 34.5842C82.4457 34.4674 82.9496 33.8788 82.8271 32.8183C82.5072 30.0481 81.8551 28.0459 80.8709 26.8117C79.908 25.5752 78.7335 25.0286 77.3473 25.1718C76.3236 25.2776 75.4466 25.7186 74.7162 26.4949C73.9833 27.2495 73.461 28.3328 73.1493 29.7447C72.8351 31.135 72.7905 32.8041 73.0155 34.7519C73.4855 38.8206 74.7512 41.7449 76.8127 43.5249C78.8931 45.281 81.4901 45.9982 84.6037 45.6765C86.2458 45.5068 87.6754 45.0854 88.8924 44.4121C90.1308 43.7367 91.1505 42.7553 91.9513 41.468C92.4056 40.9174 92.7614 40.5412 93.0187 40.3394C93.2759 40.1376 93.5432 40.0224 93.8204 39.9937C94.2043 39.9541 94.504 40.1202 94.7196 40.4922C94.9327 40.8424 95.0693 41.2773 95.1292 41.7967C95.3041 43.684 94.8668 45.5031 93.8174 47.2541C92.7654 48.9834 91.2081 50.4474 89.1453 51.646C87.1014 52.8208 84.6506 53.5558 81.7929 53.8511C78.6153 54.1794 75.7039 53.8232 73.0588 52.7824C70.4136 51.7417 68.231 50.1276 66.5108 47.9401C64.812 45.7503 63.7826 43.0972 63.4226 39.9807C63.0277 36.5613 63.3532 33.4944 64.3993 30.7802C65.4454 28.066 67.1548 25.8636 69.5276 24.173C71.8979 22.4607 74.8638 21.4206 78.4253 21.0527C81.4962 20.7354 84.1486 20.9979 86.3824 21.8402C88.6375 22.6804 90.4176 23.9857 91.7227 25.7562C93.0253 27.505 93.8153 29.5806 94.0928 31.9829Z" fill="#194280"/>
<path d="M106.78 23.5761L105.553 23.1649C105.037 22.9963 104.659 22.7826 104.42 22.5237C104.202 22.2429 104.091 21.9063 104.086 21.5141C104.079 20.9912 104.256 20.586 104.617 20.2987C104.978 20.0114 105.448 19.8645 106.027 19.8581L107.892 19.8373C108.342 19.8323 108.737 19.7298 109.077 19.5299C109.439 19.3079 109.852 18.922 110.317 18.372L114.593 13.1269C115.163 12.4668 115.704 11.9813 116.215 11.6705C116.725 11.3597 117.227 11.2016 117.72 11.1961C118.256 11.1901 118.676 11.3707 118.981 11.7378C119.285 12.083 119.442 12.5825 119.45 13.2362L119.787 40.331C119.807 41.878 120.1 43.0624 120.668 43.8842C121.257 44.6839 122.065 45.0781 123.094 45.0666C123.887 45.0578 124.496 44.8657 124.92 44.4906C125.366 44.1151 125.714 43.6972 125.966 43.2367C126.238 42.7543 126.501 42.3264 126.753 41.9531C127.028 41.5796 127.4 41.3902 127.872 41.385C128.236 41.3809 128.527 41.5084 128.745 41.7675C128.984 42.0263 129.107 42.4717 129.115 43.1036C129.135 44.6506 128.691 46.0829 127.786 47.4005C126.88 48.6964 125.618 49.7456 123.999 50.5481C122.401 51.3287 120.562 51.7305 118.483 51.7537C115.353 51.7886 112.911 51.0422 111.155 49.5145C109.4 47.965 108.502 45.6215 108.463 42.4839L108.253 25.6191C108.245 25.009 108.122 24.5636 107.883 24.283C107.665 24.0021 107.297 23.7665 106.78 23.5761ZM115.432 23.7085L115.383 19.7538L126.604 19.6287C127.183 19.6223 127.645 19.7479 127.991 20.0055C128.337 20.2414 128.513 20.599 128.519 21.0784C128.528 21.7756 128.192 22.3677 127.512 22.8547C126.854 23.3415 125.753 23.5935 124.21 23.6107L115.432 23.7085Z" fill="#194280"/>
<path d="M143.563 12.4521C141.485 12.3632 139.934 11.8171 138.909 10.8136C137.906 9.78924 137.444 8.46088 137.522 6.82849C137.609 5.02198 138.332 3.58078 139.693 2.50489C141.053 1.429 142.644 0.929998 144.464 1.00789C146.606 1.09952 148.328 1.89291 149.63 3.38806C150.932 4.88321 151.515 7.04552 151.38 9.87499C151.26 12.378 150.703 14.6005 149.709 16.5427C148.715 18.4631 147.406 20.0428 145.78 21.2818C144.155 22.499 142.313 23.3144 140.255 23.728C139.409 23.9099 138.755 23.9037 138.292 23.7094C137.851 23.5161 137.577 23.1772 137.472 22.6929C137.364 22.2521 137.459 21.8417 137.756 21.4619C138.074 21.0829 138.648 20.7476 139.478 20.456C140.895 19.9932 142.082 19.4006 143.04 18.6782C144.019 17.935 144.754 17.1486 145.245 16.319C145.758 15.4685 146.032 14.6733 146.067 13.9333C146.087 13.5198 145.985 13.1882 145.761 12.9387C145.559 12.6684 145.148 12.5199 144.526 12.4934L143.563 12.4521Z" fill="#194280"/>
<path d="M173.873 24.7664C172.506 24.6433 171.427 24.8742 170.636 25.4592C169.868 26.0244 169.436 26.7839 169.34 27.7377C169.281 28.323 169.344 28.8755 169.528 29.3953C169.715 29.8933 170.162 30.3819 170.867 30.8611C171.575 31.3186 172.672 31.7674 174.158 32.2074C177.739 33.2299 180.436 34.3696 182.249 35.6266C184.085 36.8637 185.293 38.2412 185.872 39.759C186.476 41.257 186.687 42.9057 186.506 44.7049C186.176 47.9782 184.784 50.4668 182.328 52.1706C179.875 53.8527 176.46 54.4967 172.083 54.1025C170.567 53.966 169.352 53.7253 168.439 53.3806C167.523 53.0575 166.778 52.7498 166.205 52.4575C165.654 52.1455 165.155 51.9693 164.706 51.9289C164.215 51.8847 163.797 51.9782 163.45 52.2095C163.127 52.421 162.803 52.6434 162.478 52.8766C162.153 53.1098 161.755 53.2053 161.286 53.163C160.816 53.1207 160.478 52.948 160.271 52.6451C160.063 52.3638 159.897 51.8676 159.775 51.1567L158.469 44.8705C158.289 43.87 158.281 43.0928 158.445 42.5388C158.632 41.965 159.024 41.5957 159.623 41.4308C160.242 41.2679 160.766 41.315 161.192 41.5722C161.621 41.8076 161.996 42.257 162.317 42.9203C163.121 44.5676 164.007 45.9271 164.977 46.9987C165.967 48.0723 167.026 48.9004 168.152 49.4831C169.302 50.046 170.496 50.3832 171.735 50.4947C173.379 50.6428 174.639 50.4282 175.516 49.8509C176.393 49.2737 176.886 48.4431 176.995 47.3592C177.063 46.6872 176.951 46.0866 176.66 45.5572C176.392 45.0081 175.787 44.4834 174.847 43.983C173.929 43.463 172.54 42.9222 170.679 42.3609C167.813 41.5122 165.565 40.5113 163.936 39.3584C162.309 38.1838 161.184 36.8357 160.562 35.3141C159.961 33.7944 159.758 32.059 159.955 30.108C160.16 28.0703 160.873 26.3408 162.093 24.9196C163.314 23.4983 164.894 22.4594 166.835 21.8029C168.777 21.1248 170.966 20.8953 173.4 21.1146C174.959 21.2549 176.184 21.4965 177.076 21.8393C177.989 22.1841 178.72 22.5233 179.268 22.857C179.84 23.171 180.403 23.353 180.958 23.403C181.492 23.4511 181.943 23.3604 182.311 23.1311C182.702 22.8819 183.071 22.6417 183.418 22.4105C183.764 22.1792 184.172 22.0847 184.642 22.127C185.048 22.1635 185.363 22.3451 185.589 22.6716C185.838 22.9784 185.992 23.4844 186.05 24.1897L186.739 30.1905C186.814 31.1597 186.761 31.8987 186.58 32.4074C186.423 32.8964 186.056 33.2243 185.479 33.391C184.879 33.5776 184.367 33.5206 183.945 33.2201C183.544 32.9215 183.144 32.4042 182.744 31.6682C181.581 29.3104 180.211 27.6121 178.635 26.5734C177.083 25.5148 175.495 24.9125 173.873 24.7664Z" fill="#194280"/>
<path d="M217.524 30.7323L216.382 30.1381C215.901 29.8924 215.564 29.6236 215.372 29.3318C215.205 29.0216 215.153 28.673 215.216 28.2859C215.299 27.7699 215.544 27.3982 215.95 27.1708C216.356 26.9435 216.845 26.8713 217.418 26.9542L219.265 27.2212C219.71 27.2857 220.119 27.2457 220.489 27.1013C220.885 26.9385 221.36 26.622 221.913 26.152L227.04 21.6453C227.718 21.0832 228.335 20.6884 228.893 20.461C229.451 20.2337 229.974 20.1553 230.462 20.2259C230.993 20.3026 231.377 20.5453 231.615 20.9538C231.857 21.3408 231.925 21.8568 231.821 22.5019L227.497 49.24C227.25 50.7667 227.337 51.9784 227.756 52.8753C228.201 53.7538 228.932 54.2667 229.951 54.4141C230.736 54.5276 231.37 54.4324 231.854 54.1282C232.359 53.8271 232.775 53.4692 233.103 53.0545C233.455 52.6214 233.788 52.2405 234.102 51.9118C234.437 51.5861 234.838 51.4571 235.305 51.5246C235.666 51.5768 235.931 51.7473 236.102 52.036C236.293 52.3278 236.339 52.7855 236.238 53.409C235.991 54.9357 235.307 56.2781 234.186 57.4362C233.068 58.5729 231.64 59.4116 229.902 59.9524C228.189 60.4747 226.303 60.587 224.244 60.2892C221.146 59.841 218.861 58.7293 217.389 56.954C215.92 55.1572 215.436 52.7106 215.937 49.6143L218.628 32.9715C218.725 32.3695 218.68 31.9118 218.492 31.5985C218.325 31.2882 218.002 30.9995 217.524 30.7323ZM226.051 32.1968L226.682 28.2941L237.792 29.9011C238.365 29.984 238.8 30.179 239.098 30.4861C239.399 30.7718 239.512 31.1511 239.435 31.6242C239.324 32.3122 238.89 32.8437 238.135 33.2185C237.4 33.5964 236.269 33.6748 234.741 33.4538L226.051 32.1968Z" fill="#194280"/>
<path d="M260.519 60.5476L260.638 59.8388L259.854 59.6548L263.216 39.6465C263.411 38.4866 263.257 37.5275 262.754 36.7692C262.273 36.0141 261.501 35.5568 260.441 35.3974C259.551 35.2635 258.795 35.3592 258.175 35.6844C257.555 36.0096 257.195 36.4729 257.094 37.0744L256.558 40.2641C256.298 41.8106 255.576 42.9354 254.393 43.6384C253.234 44.323 251.7 44.5219 249.792 44.235C248.159 43.9895 246.991 43.4395 246.286 42.5848C245.603 41.7334 245.37 40.6633 245.587 39.3745C245.821 37.9783 246.646 36.6929 248.061 35.5182C249.48 34.322 251.442 33.4498 253.947 32.9015C256.452 32.3533 259.465 32.3437 262.985 32.8729C267.184 33.5041 270.162 34.7997 271.92 36.7597C273.702 38.7014 274.359 41.0684 273.89 43.8608L271.188 59.9383C271.104 60.4323 271.144 60.8456 271.305 61.1782C271.492 61.4925 271.807 61.6831 272.253 61.7501C272.656 61.8107 272.981 61.7495 273.229 61.5666C273.499 61.3868 273.745 61.2147 273.968 61.05C274.121 60.9188 274.28 60.8106 274.447 60.7256C274.613 60.6405 274.792 60.6123 274.983 60.641C275.301 60.6888 275.514 60.842 275.623 61.1006C275.732 61.3592 275.755 61.6711 275.694 62.0362C275.553 62.8739 275.108 63.71 274.359 64.5443C273.614 65.3572 272.604 65.9982 271.329 66.4672C270.058 66.9148 268.554 67.0079 266.815 66.7464C264.694 66.4277 263.044 65.706 261.863 64.5815C260.707 63.4388 260.259 62.0941 260.519 60.5476ZM241.666 55.1366C242.139 52.3228 243.767 50.2663 246.551 48.967C249.338 47.6463 252.98 47.3239 257.475 47.9997C258.79 48.1974 259.938 48.4801 260.92 48.848C261.926 49.1975 262.749 49.6074 263.387 50.0778L262.085 52.3926C261.542 52.0026 260.997 51.6894 260.45 51.453C259.923 51.2197 259.321 51.0521 258.643 50.9501C257.243 50.7397 256.072 50.982 255.129 51.6771C254.211 52.3539 253.629 53.4226 253.383 54.8832C253.134 56.3653 253.293 57.5563 253.859 58.4562C254.45 59.3379 255.329 59.8664 256.495 60.0417C257.364 60.1724 258.236 60.0943 259.111 59.8073C259.985 59.5204 260.722 59.0806 261.322 58.4881L261.68 60.8212C260.327 62.2696 258.591 63.2859 256.471 63.8701C254.376 64.4359 252.225 64.5531 250.02 64.2216C247.136 63.788 244.923 62.7285 243.38 61.043C241.862 59.3393 241.29 57.3705 241.666 55.1366Z" fill="#194280"/>
<path d="M300.961 23.5828L295.623 63.551C295.519 64.3284 295.519 64.8987 295.622 65.262C295.749 65.6062 295.983 65.8755 296.325 66.0699L297.208 66.5044C297.653 66.7331 297.953 66.9993 298.107 67.3029C298.282 67.609 298.344 67.9564 298.292 68.3451C298.223 68.8633 297.998 69.2532 297.617 69.5148C297.239 69.7549 296.688 69.8316 295.964 69.7452L282.392 68.1238C281.647 68.0348 281.123 67.8296 280.819 67.5082C280.54 67.1678 280.436 66.7384 280.505 66.2202C280.557 65.8315 280.697 65.5083 280.926 65.2505C281.177 64.9952 281.537 64.8079 282.007 64.6885L283.04 64.4829C283.401 64.3725 283.678 64.1642 283.87 63.8581C284.086 63.533 284.245 62.9925 284.346 62.2368L288.836 28.6168C288.92 27.9906 288.894 27.5378 288.758 27.2583C288.625 26.9573 288.373 26.7407 288.001 26.6085L286.841 26.3054C286.433 26.125 286.149 25.9046 285.989 25.6442C285.85 25.3863 285.805 25.0738 285.854 24.7068C285.915 24.2533 286.08 23.911 286.348 23.6799C286.638 23.4513 287.131 23.2469 287.825 23.0666L294.641 21.347C295.694 21.0779 296.517 20.9021 297.112 20.8196C297.729 20.7397 298.25 20.7251 298.675 20.776C299.548 20.8803 300.166 21.1954 300.528 21.7213C300.915 22.2281 301.059 22.8486 300.961 23.5828Z" fill="#194280"/>
<path d="M303.366 71.1564C302.638 71.1389 302.116 70.9847 301.802 70.6938C301.489 70.3811 301.34 69.9633 301.354 69.4405C301.364 69.0484 301.47 68.7131 301.67 68.4346C301.892 68.1566 302.23 67.9359 302.685 67.7724L303.69 67.4696C304.037 67.3254 304.29 67.0917 304.449 66.7686C304.63 66.4242 304.731 65.8708 304.751 65.1084L305.663 31.1927C305.68 30.561 305.606 30.1123 305.442 29.8468C305.278 29.5595 305.004 29.3677 304.621 29.2713L303.436 29.0793C303.011 28.9383 302.705 28.7457 302.519 28.5014C302.354 28.2577 302.276 27.9507 302.286 27.5804C302.298 27.1229 302.426 26.7664 302.669 26.5106C302.933 26.2554 303.401 26.0051 304.072 25.7597L310.665 23.4007C311.639 23.0536 312.418 22.8107 313 22.6722C313.605 22.5123 314.186 22.4391 314.743 22.4525C315.558 22.4721 316.173 22.7266 316.588 23.2162C317.005 23.6839 317.203 24.2881 317.183 25.0287L316.099 65.3486C316.078 66.1327 316.138 66.7009 316.278 67.053C316.441 67.3839 316.703 67.6299 317.063 67.7912L317.953 68.1722C318.63 68.5373 318.958 69.0683 318.94 69.7653C318.908 70.9416 318.174 71.5125 316.738 71.4779L303.366 71.1564ZM312.975 57.1323L325.887 47.0457C326.631 46.4751 326.979 45.9059 326.93 45.338C326.882 44.7483 326.465 44.2914 325.68 43.9674L324.693 43.6167C324.289 43.4544 324.005 43.2514 323.84 43.0077C323.697 42.7645 323.63 42.4468 323.641 42.0547C323.655 41.532 323.848 41.1334 324.22 40.8589C324.592 40.5627 325.089 40.4221 325.711 40.4371L337.604 40.723C338.247 40.7385 338.747 40.8922 339.104 41.1841C339.461 41.4761 339.632 41.8725 339.619 42.3735C339.606 42.8528 339.445 43.2521 339.136 43.5717C338.827 43.8912 338.187 44.1701 337.216 44.4083C336.094 44.6646 335.065 45.0432 334.13 45.5438C333.195 46.0226 332.027 46.801 330.625 47.879L314.207 60.3334L312.975 57.1323ZM325.52 48.737L336.597 66.2338C337.009 66.854 337.372 67.3205 337.685 67.6332C338.02 67.9246 338.463 68.2077 339.013 68.4825C339.477 68.777 339.833 69.0907 340.082 69.4236C340.33 69.7566 340.449 70.1191 340.438 70.5112C340.426 70.9686 340.234 71.3345 339.862 71.6089C339.49 71.8833 339.004 72.0133 338.404 71.9989L324.293 71.6596C323.735 71.6462 323.289 71.4938 322.954 71.2024C322.641 70.8897 322.491 70.4828 322.504 69.9818C322.514 69.6333 322.596 69.3519 322.752 69.1377C322.908 68.9235 323.171 68.7227 323.54 68.5355L324.353 68.228C324.829 68.0651 325.082 67.8096 325.113 67.4616C325.166 67.0924 324.935 66.4983 324.421 65.6795L317.88 55.3539L325.52 48.737Z" fill="#194280"/>
<path d="M344.462 21.6526C346.802 21.3557 348.603 21.6871 349.865 22.6467C351.127 23.6063 351.888 25.0028 352.148 26.836C352.228 27.3968 352.263 28.029 352.255 28.7327C352.264 29.4121 352.229 30.1521 352.147 30.9529L351.068 51.2783C350.965 52.2354 350.764 52.9526 350.463 53.4299C350.184 53.9044 349.726 54.1821 349.087 54.2631C348.449 54.3441 347.919 54.1918 347.496 53.8063C347.095 53.4182 346.711 52.7752 346.346 51.8775L339.608 32.5438C339.307 31.7916 339.055 31.088 338.854 30.4329C338.671 29.7535 338.54 29.1335 338.46 28.5727C338.2 26.7394 338.545 25.2027 339.495 23.9624C340.467 22.7194 342.122 21.9494 344.462 21.6526ZM351.419 70.9283C350.185 71.0848 349.024 70.9138 347.936 70.4151C346.844 69.895 345.927 69.155 345.185 68.1953C344.46 67.2114 344.011 66.1047 343.837 64.8753C343.656 63.6028 343.781 62.4233 344.212 61.3368C344.661 60.2259 345.34 59.2944 346.251 58.5421C347.162 57.7898 348.235 57.3353 349.469 57.1788C350.724 57.0196 351.895 57.1893 352.984 57.6879C354.093 58.1838 355.009 58.913 355.73 59.8754C356.469 60.8135 356.929 61.9188 357.11 63.1913C357.284 64.4207 357.149 65.6015 356.703 66.7339C356.275 67.8421 355.597 68.7844 354.668 69.561C353.757 70.3133 352.674 70.7691 351.419 70.9283Z" fill="#194280"/>
</svg>
